G04 Generated by Ultiboard 13.0 *
%FSLAX34Y34*%
%MOMM*%

%ADD11C,0.0010*%
%ADD12C,0.1270*%


G04 ColorRGB 00FFFF for the following layer *
%LNBoard Outline*%
%LPD*%
G54D10*
G54D11*
X2032000Y-2540D02*
X2032000Y1013460D01*
X0Y1013460D01*
X0Y-2540D01*
X2032000Y-2540D01*
G54D12*
X-31464Y-31464D02*
X-31464Y76429D01*
X-31464Y-31464D02*
X178029Y-31464D01*
X2063464Y-31464D02*
X1853971Y-31464D01*
X2063464Y-31464D02*
X2063464Y76429D01*
X2063464Y1047464D02*
X2063464Y939571D01*
X2063464Y1047464D02*
X1853971Y1047464D01*
X-31464Y1047464D02*
X178029Y1047464D01*
X-31464Y1047464D02*
X-31464Y939571D01*
X-81464Y-31464D02*
X-181464Y-31464D01*
X-131464Y-81464D02*
X-131464Y18536D01*
X-168964Y-31464D02*
G75*
D01*
G02X-168964Y-31464I37500J0*
G01*
X2113464Y-31464D02*
X2213464Y-31464D01*
X2163464Y-81464D02*
X2163464Y18536D01*
X2125964Y-31464D02*
G75*
D01*
G02X2125964Y-31464I37500J0*
G01*
X2150964Y-31464D02*
G75*
D01*
G02X2150964Y-31464I12500J0*
G01*
X-81464Y1047464D02*
X-181464Y1047464D01*
X-131464Y997464D02*
X-131464Y1097464D01*
X-168964Y1047464D02*
G75*
D01*
G02X-168964Y1047464I37500J0*
G01*
X-156464Y1047464D02*
G75*
D01*
G02X-156464Y1047464I25000J0*
G01*
X-143964Y1047464D02*
G75*
D01*
G02X-143964Y1047464I12500J0*
G01*

M02*
