G04 Generated by Ultiboard 13.0 *
%FSLAX34Y34*%
%MOMM*%

%ADD10C,0.0001*%
%ADD11C,0.2540*%
%ADD12C,0.5000*%
%ADD13C,0.1270*%
%ADD14C,1.2700*%
%ADD15R,0.6350X0.6350*%
%ADD16C,0.8890*%
%ADD17C,1.5366*%
%ADD18R,6.3500X3.3000*%
%ADD19R,3.3000X4.0600*%
%ADD20R,6.3500X3.8100*%
%ADD21C,1.5367*%
%ADD22C,3.4036*%
%ADD23C,1.3208*%
%ADD24C,2.0056*%
%ADD25C,1.6088*%
%ADD26R,0.5291X0.5291*%
%ADD27C,0.9949*%
%ADD28R,1.1500X2.7000*%
%ADD29R,2.7000X1.1500*%
%ADD30C,1.2446*%
%ADD31C,1.0000*%


G04 ColorRGB 0000FF for the following layer *
%LNCopper Bottom*%
%LPD*%
G54D10*
G54D11*
X1312500Y876300D02*
X1309308Y876300D01*
X1312500Y746250D02*
X1312500Y876300D01*
X1316250Y742500D02*
X1312500Y746250D01*
X1420950Y742500D02*
X1316250Y742500D01*
X1422825Y744375D02*
X1420950Y742500D01*
X1424700Y746250D02*
X1422825Y744375D01*
X1424700Y762000D02*
X1424700Y746250D01*
X1094645Y562500D02*
X1093945Y561800D01*
X1316250Y562500D02*
X1094645Y562500D01*
X1320000Y558750D02*
X1316250Y562500D01*
X1320000Y446662D02*
X1320000Y558750D01*
X1601250Y446662D02*
X1320000Y446662D01*
X1605000Y446250D02*
X1601250Y446662D01*
X1605000Y371250D02*
X1605000Y446250D01*
X1608750Y367500D02*
X1605000Y371250D01*
X1620000Y367500D02*
X1608750Y367500D01*
X1623300Y364200D02*
X1620000Y367500D01*
X1623300Y355600D02*
X1623300Y364200D01*
X607300Y326250D02*
X607300Y355600D01*
X611050Y322500D02*
X607300Y326250D01*
X611250Y322500D02*
X611050Y322500D01*
X618750Y322500D02*
X611250Y322500D01*
X622500Y318750D02*
X618750Y322500D01*
X622500Y103886D02*
X622500Y318750D01*
X791250Y103886D02*
X622500Y103886D01*
X791250Y105000D02*
X791250Y103886D01*
X795000Y108750D02*
X791250Y105000D01*
X795000Y112500D02*
X795000Y108750D01*
X796800Y114300D02*
X795000Y112500D01*
X801308Y114300D02*
X796800Y114300D01*
X607300Y562500D02*
X607300Y609600D01*
X607500Y562500D02*
X607300Y562500D01*
X1653300Y243840D02*
X1653300Y254000D01*
X1781250Y243840D02*
X1653300Y243840D01*
X1781250Y247500D02*
X1781250Y243840D01*
X1785000Y251250D02*
X1781250Y247500D01*
X1785000Y254000D02*
X1785000Y251250D01*
X1790700Y254000D02*
X1785000Y254000D01*
X637300Y397700D02*
X637300Y406400D01*
X637500Y397500D02*
X637300Y397700D01*
X637500Y378750D02*
X637500Y397500D01*
X633750Y375000D02*
X637500Y378750D01*
X616861Y375000D02*
X633750Y375000D01*
X616861Y333750D02*
X616861Y375000D01*
X618750Y330000D02*
X616861Y333750D01*
X723750Y330000D02*
X618750Y330000D01*
X727500Y326250D02*
X723750Y330000D01*
X727500Y153750D02*
X727500Y326250D01*
X731250Y150000D02*
X727500Y153750D01*
X798750Y150000D02*
X731250Y150000D01*
X802500Y146250D02*
X798750Y150000D01*
X802500Y142500D02*
X802500Y146250D01*
X802500Y140892D02*
X802500Y142500D01*
X801308Y139700D02*
X802500Y140892D01*
X607300Y719800D02*
X607300Y711200D01*
X607500Y720000D02*
X607300Y719800D01*
X607500Y738750D02*
X607500Y720000D01*
X611250Y742500D02*
X607500Y738750D01*
X627740Y742500D02*
X611250Y742500D01*
X627740Y891286D02*
X627740Y742500D01*
X791250Y891286D02*
X627740Y891286D01*
X791250Y892500D02*
X791250Y891286D01*
X795000Y896250D02*
X791250Y892500D01*
X795000Y900000D02*
X795000Y896250D01*
X796700Y901700D02*
X795000Y900000D01*
X801308Y901700D02*
X796700Y901700D01*
X1094145Y435000D02*
X1093945Y434800D01*
X1095000Y435000D02*
X1094145Y435000D01*
X1301250Y435000D02*
X1095000Y435000D01*
X1305000Y431250D02*
X1301250Y435000D01*
X1305000Y318750D02*
X1305000Y431250D01*
X1308750Y315000D02*
X1305000Y318750D01*
X1394400Y315000D02*
X1308750Y315000D01*
X1394550Y309900D02*
X1394400Y315000D01*
X1394700Y304800D02*
X1394550Y309900D01*
X637300Y667300D02*
X637300Y660400D01*
X637500Y667500D02*
X637300Y667300D01*
X697500Y667500D02*
X637500Y667500D01*
X943545Y255000D02*
X941545Y257000D01*
X945000Y255000D02*
X943545Y255000D01*
X945000Y101250D02*
X945000Y255000D01*
X948750Y97500D02*
X945000Y101250D01*
X1218750Y97500D02*
X948750Y97500D01*
X1222500Y101250D02*
X1218750Y97500D01*
X1222500Y243840D02*
X1222500Y101250D01*
X1394700Y243840D02*
X1222500Y243840D01*
X1394700Y254000D02*
X1394700Y243840D01*
X637300Y247500D02*
X637300Y254000D01*
X637500Y247500D02*
X637300Y247500D01*
X637500Y131250D02*
X637500Y247500D01*
X641250Y127500D02*
X637500Y131250D01*
X811722Y127500D02*
X641250Y127500D01*
X811722Y251250D02*
X811722Y127500D01*
X810000Y251250D02*
X811722Y251250D01*
X806250Y255000D02*
X810000Y251250D01*
X780000Y255000D02*
X806250Y255000D01*
X779000Y254000D02*
X780000Y255000D01*
X774700Y254000D02*
X779000Y254000D01*
X1312108Y142500D02*
X1309308Y139700D01*
X1631250Y142500D02*
X1312108Y142500D01*
X1635000Y146250D02*
X1631250Y142500D01*
X1635000Y326250D02*
X1635000Y146250D01*
X1631250Y330000D02*
X1635000Y326250D01*
X1443750Y330000D02*
X1631250Y330000D01*
X1440000Y333750D02*
X1443750Y330000D01*
X1440000Y393750D02*
X1440000Y333750D01*
X1436250Y397500D02*
X1440000Y393750D01*
X1425000Y397500D02*
X1436250Y397500D01*
X1424700Y397800D02*
X1425000Y397500D01*
X1424700Y406400D02*
X1424700Y397800D01*
X1306700Y901700D02*
X1309308Y901700D01*
X1305000Y900000D02*
X1306700Y901700D01*
X1301250Y900000D02*
X1305000Y900000D01*
X1297500Y896250D02*
X1301250Y900000D01*
X1297500Y697500D02*
X1297500Y896250D01*
X217500Y901308D02*
X217108Y901700D01*
X273750Y901308D02*
X217500Y901308D01*
X277500Y897558D02*
X273750Y901308D01*
X277500Y896250D02*
X277500Y897558D01*
X277500Y677711D02*
X277500Y896250D01*
X401250Y677711D02*
X277500Y677711D01*
X401250Y675000D02*
X401250Y677711D01*
X405000Y671250D02*
X401250Y675000D01*
X405000Y667500D02*
X405000Y671250D01*
X408700Y667500D02*
X405000Y667500D01*
X408700Y660400D02*
X408700Y667500D01*
X378700Y652500D02*
X378700Y660400D01*
X285000Y652500D02*
X378700Y652500D01*
X1080000Y273750D02*
X1080000Y157500D01*
X1083750Y277500D02*
X1080000Y273750D01*
X1093945Y277500D02*
X1083750Y277500D01*
X1093945Y282400D02*
X1093945Y277500D01*
X382500Y609600D02*
X378700Y609600D01*
X382500Y626250D02*
X382500Y609600D01*
X386250Y630000D02*
X382500Y626250D01*
X528750Y630000D02*
X386250Y630000D01*
X532500Y626250D02*
X528750Y630000D01*
X532500Y547500D02*
X532500Y626250D01*
X1653300Y772500D02*
X1653300Y762000D01*
X1657500Y772500D02*
X1653300Y772500D01*
X1657500Y851250D02*
X1657500Y772500D01*
X1661250Y855000D02*
X1657500Y851250D01*
X1811250Y855000D02*
X1661250Y855000D01*
X1815000Y858750D02*
X1811250Y855000D01*
X1815000Y876300D02*
X1815000Y858750D01*
X1817216Y876300D02*
X1815000Y876300D01*
X1817308Y876300D02*
X1817216Y876300D01*
X765000Y510000D02*
X765000Y506600D01*
X753750Y510000D02*
X765000Y510000D01*
X750000Y513750D02*
X753750Y510000D01*
X750000Y558750D02*
X750000Y513750D01*
X753750Y562500D02*
X750000Y558750D01*
X937500Y562500D02*
X753750Y562500D01*
X938200Y561800D02*
X937500Y562500D01*
X941545Y561800D02*
X938200Y561800D01*
X1428750Y675000D02*
X1440000Y675000D01*
X1425000Y671250D02*
X1428750Y675000D01*
X1425000Y667500D02*
X1425000Y671250D01*
X1424700Y667200D02*
X1425000Y667500D01*
X1424700Y660400D02*
X1424700Y667200D01*
X1623300Y720000D02*
X1623300Y711200D01*
X1627500Y720000D02*
X1623300Y720000D01*
X1627500Y738750D02*
X1627500Y720000D01*
X1631250Y742500D02*
X1627500Y738750D01*
X1743750Y742500D02*
X1631250Y742500D01*
X1747500Y746250D02*
X1743750Y742500D01*
X1747500Y843750D02*
X1747500Y746250D01*
X1751250Y847500D02*
X1747500Y843750D01*
X1826250Y847500D02*
X1751250Y847500D01*
X1830000Y851250D02*
X1826250Y847500D01*
X1830000Y896250D02*
X1830000Y851250D01*
X1826250Y900000D02*
X1830000Y896250D01*
X1822500Y900000D02*
X1826250Y900000D01*
X1820800Y901700D02*
X1822500Y900000D01*
X1817308Y901700D02*
X1820800Y901700D01*
X1095000Y459145D02*
X1093945Y460200D01*
X1308750Y459145D02*
X1095000Y459145D01*
X1312500Y455395D02*
X1308750Y459145D01*
X1312500Y453750D02*
X1312500Y455395D01*
X1312500Y326250D02*
X1312500Y453750D01*
X1316250Y322500D02*
X1312500Y326250D01*
X1616250Y322500D02*
X1316250Y322500D01*
X1620000Y318750D02*
X1616250Y322500D01*
X1620000Y315000D02*
X1620000Y318750D01*
X1623300Y311700D02*
X1620000Y315000D01*
X1623300Y304800D02*
X1623300Y311700D01*
X1350000Y648750D02*
X1350000Y607500D01*
X1353750Y652500D02*
X1350000Y648750D01*
X1394700Y652500D02*
X1353750Y652500D01*
X1394700Y660400D02*
X1394700Y652500D01*
X270000Y758700D02*
X266700Y762000D01*
X270000Y592290D02*
X270000Y758700D01*
X401250Y592290D02*
X270000Y592290D01*
X401250Y592500D02*
X401250Y592290D01*
X405000Y596250D02*
X401250Y592500D01*
X405000Y600000D02*
X405000Y596250D01*
X408700Y600000D02*
X405000Y600000D01*
X408700Y609600D02*
X408700Y600000D01*
X938900Y358600D02*
X941545Y358600D01*
X937500Y360000D02*
X938900Y358600D01*
X926250Y360000D02*
X937500Y360000D01*
X922500Y356250D02*
X926250Y360000D01*
X922500Y93750D02*
X922500Y356250D01*
X926250Y90000D02*
X922500Y93750D01*
X1293750Y90000D02*
X926250Y90000D01*
X1297500Y93750D02*
X1293750Y90000D01*
X1297500Y202500D02*
X1297500Y93750D01*
X1394700Y600000D02*
X1365000Y600000D01*
X1395000Y609600D02*
X1394700Y600000D01*
X1394700Y609600D02*
X1395000Y609600D01*
X637300Y858750D02*
X637300Y762000D01*
X641050Y862500D02*
X637300Y858750D01*
X641250Y862500D02*
X641050Y862500D01*
X798750Y862500D02*
X641250Y862500D01*
X802500Y866250D02*
X798750Y862500D01*
X802500Y870000D02*
X802500Y866250D01*
X801308Y871192D02*
X802500Y870000D01*
X801308Y876300D02*
X801308Y871192D01*
X1410000Y626250D02*
X1410000Y675000D01*
X1413750Y622500D02*
X1410000Y626250D01*
X1424700Y622500D02*
X1413750Y622500D01*
X1425000Y609600D02*
X1424700Y622500D01*
X1424700Y609600D02*
X1425000Y609600D01*
X1623300Y345000D02*
X1623300Y355600D01*
X1627500Y345000D02*
X1623300Y345000D01*
X1627500Y341250D02*
X1627500Y345000D01*
X1631250Y337500D02*
X1627500Y341250D01*
X1806893Y337500D02*
X1631250Y337500D01*
X1806893Y123750D02*
X1806893Y337500D01*
X1807500Y123750D02*
X1806893Y123750D01*
X1811250Y120000D02*
X1807500Y123750D01*
X1815000Y120000D02*
X1811250Y120000D01*
X1817308Y117692D02*
X1815000Y120000D01*
X1817308Y114300D02*
X1817308Y117692D01*
X1093945Y666445D02*
X1093945Y663400D01*
X1095000Y667500D02*
X1093945Y666445D01*
X1376250Y667500D02*
X1095000Y667500D01*
X1380000Y671250D02*
X1376250Y667500D01*
X1380000Y686250D02*
X1380000Y671250D01*
X1383750Y690000D02*
X1380000Y686250D01*
X1616250Y690000D02*
X1383750Y690000D01*
X1620000Y693750D02*
X1616250Y690000D01*
X1620000Y705000D02*
X1620000Y693750D01*
X1623300Y705000D02*
X1620000Y705000D01*
X1623300Y711200D02*
X1623300Y705000D01*
X142242Y479742D02*
X138700Y479742D01*
X142500Y480000D02*
X142242Y479742D01*
X213750Y480000D02*
X142500Y480000D01*
X217500Y483750D02*
X213750Y480000D01*
X217500Y566250D02*
X217500Y483750D01*
X221250Y570000D02*
X217500Y566250D01*
X513750Y570000D02*
X221250Y570000D01*
X517500Y566250D02*
X513750Y570000D01*
X517500Y536250D02*
X517500Y566250D01*
X521250Y532500D02*
X517500Y536250D01*
X738750Y532500D02*
X521250Y532500D01*
X742500Y536250D02*
X738750Y532500D01*
X742500Y633750D02*
X742500Y536250D01*
X746250Y637500D02*
X742500Y633750D01*
X937500Y637500D02*
X746250Y637500D01*
X938000Y638000D02*
X937500Y637500D01*
X941545Y638000D02*
X938000Y638000D01*
X1650000Y304800D02*
X1653300Y304800D01*
X1650000Y292500D02*
X1650000Y304800D01*
X1646250Y292500D02*
X1650000Y292500D01*
X1642500Y288750D02*
X1646250Y292500D01*
X1642500Y123750D02*
X1642500Y288750D01*
X1646250Y120000D02*
X1642500Y123750D01*
X1740000Y120000D02*
X1646250Y120000D01*
X1741108Y118892D02*
X1740000Y120000D01*
X1741108Y114300D02*
X1741108Y118892D01*
X915000Y330000D02*
X907500Y330000D01*
X915000Y86250D02*
X915000Y330000D01*
X918750Y82500D02*
X915000Y86250D01*
X1826250Y82500D02*
X918750Y82500D01*
X1830000Y86250D02*
X1826250Y82500D01*
X1830000Y592290D02*
X1830000Y86250D01*
X1631250Y592290D02*
X1830000Y592290D01*
X1631250Y592500D02*
X1631250Y592290D01*
X1627500Y596250D02*
X1631250Y592500D01*
X1627500Y600000D02*
X1627500Y596250D01*
X1623300Y600000D02*
X1627500Y600000D01*
X1623300Y609600D02*
X1623300Y600000D01*
X292500Y900892D02*
X293308Y901700D01*
X282893Y900892D02*
X292500Y900892D01*
X282893Y900000D02*
X282893Y900892D01*
X282893Y723750D02*
X282893Y900000D01*
X285000Y723750D02*
X282893Y723750D01*
X288750Y720000D02*
X285000Y723750D01*
X378700Y720000D02*
X288750Y720000D01*
X378700Y711200D02*
X378700Y720000D01*
X607300Y277500D02*
X607300Y304800D01*
X607500Y277500D02*
X607300Y277500D01*
X293308Y870808D02*
X293308Y876300D01*
X292500Y870000D02*
X293308Y870808D01*
X292500Y746250D02*
X292500Y870000D01*
X296250Y742500D02*
X292500Y746250D01*
X401250Y742500D02*
X296250Y742500D01*
X405000Y746250D02*
X401250Y742500D01*
X405000Y750000D02*
X405000Y746250D01*
X408700Y753700D02*
X405000Y750000D01*
X408700Y762000D02*
X408700Y753700D01*
X801308Y906308D02*
X801308Y901700D01*
X802500Y907500D02*
X801308Y906308D01*
X802500Y933750D02*
X802500Y907500D01*
X1020000Y896250D02*
X1017777Y896250D01*
X1027500Y888750D02*
X1020000Y896250D01*
X1027500Y855000D02*
X1027500Y888750D01*
X1091250Y780000D02*
X930000Y780000D01*
X1095000Y776250D02*
X1091250Y780000D01*
X1095000Y742500D02*
X1095000Y776250D01*
X1093945Y741445D02*
X1095000Y742500D01*
X1093945Y739600D02*
X1093945Y741445D01*
X607300Y667300D02*
X607300Y660400D01*
X607500Y667500D02*
X607300Y667300D01*
X607500Y678750D02*
X607500Y667500D01*
X611250Y682500D02*
X607500Y678750D01*
X918750Y682500D02*
X611250Y682500D01*
X922500Y686250D02*
X918750Y682500D01*
X922500Y753750D02*
X922500Y686250D01*
X926250Y757500D02*
X922500Y753750D01*
X1068750Y757500D02*
X926250Y757500D01*
X1072500Y753750D02*
X1068750Y757500D01*
X1072500Y311250D02*
X1072500Y753750D01*
X1076250Y307500D02*
X1072500Y311250D01*
X1093190Y307500D02*
X1076250Y307500D01*
X1093568Y307650D02*
X1093190Y307500D01*
X1093945Y307800D02*
X1093568Y307650D01*
X1616250Y217500D02*
X1327500Y217500D01*
X1620000Y221250D02*
X1616250Y217500D01*
X1620000Y247500D02*
X1620000Y221250D01*
X1623300Y247500D02*
X1620000Y247500D01*
X1623300Y254000D02*
X1623300Y247500D01*
X943245Y712500D02*
X941545Y714200D01*
X945000Y712500D02*
X943245Y712500D01*
X978750Y712500D02*
X945000Y712500D01*
X982500Y708750D02*
X978750Y712500D01*
X982500Y202500D02*
X982500Y708750D01*
X960056Y142444D02*
X960000Y142500D01*
X960056Y138700D02*
X960056Y142444D01*
X637300Y633750D02*
X637300Y609600D01*
X635425Y635625D02*
X637300Y633750D01*
X633550Y637500D02*
X635425Y635625D01*
X597740Y637500D02*
X633550Y637500D01*
X597740Y686250D02*
X597740Y637500D01*
X600000Y686250D02*
X597740Y686250D01*
X603750Y690000D02*
X600000Y686250D01*
X768750Y690000D02*
X603750Y690000D01*
X772500Y693750D02*
X768750Y690000D01*
X772500Y757500D02*
X772500Y693750D01*
X772500Y759800D02*
X772500Y757500D01*
X774700Y762000D02*
X772500Y759800D01*
X1653300Y667500D02*
X1653300Y660400D01*
X1695000Y667500D02*
X1653300Y667500D01*
X1653300Y618300D02*
X1653300Y609600D01*
X1657500Y622500D02*
X1653300Y618300D01*
X1788750Y622500D02*
X1657500Y622500D01*
X1792500Y626250D02*
X1788750Y622500D01*
X1792500Y757500D02*
X1792500Y626250D01*
X1790700Y759300D02*
X1792500Y757500D01*
X1790700Y762000D02*
X1790700Y759300D01*
X607300Y262500D02*
X607300Y254000D01*
X596250Y262500D02*
X607300Y262500D01*
X592500Y266250D02*
X596250Y262500D01*
X592500Y292500D02*
X592500Y266250D01*
X1095000Y586145D02*
X1093945Y587200D01*
X1372500Y586145D02*
X1095000Y586145D01*
X1372500Y585000D02*
X1372500Y586145D01*
X637300Y292500D02*
X637300Y304800D01*
X627740Y292500D02*
X637300Y292500D01*
X627740Y116250D02*
X627740Y292500D01*
X630000Y116250D02*
X627740Y116250D01*
X633750Y112500D02*
X630000Y116250D01*
X720000Y112500D02*
X633750Y112500D01*
X721800Y114300D02*
X720000Y112500D01*
X725108Y114300D02*
X721800Y114300D01*
X1282500Y254200D02*
X1282700Y254000D01*
X1282500Y255000D02*
X1282500Y254200D01*
X1282500Y271311D02*
X1282500Y255000D01*
X1421250Y271311D02*
X1282500Y271311D01*
X1421250Y270000D02*
X1421250Y271311D01*
X1425000Y266250D02*
X1421250Y270000D01*
X1425000Y262500D02*
X1425000Y266250D01*
X1424700Y262200D02*
X1425000Y262500D01*
X1424700Y254000D02*
X1424700Y262200D01*
X1394700Y352500D02*
X1380000Y352500D01*
X1394700Y355600D02*
X1394700Y352500D01*
X1095000Y689855D02*
X1093945Y688800D01*
X1095000Y693750D02*
X1095000Y689855D01*
X1098750Y697500D02*
X1095000Y693750D01*
X1391250Y697500D02*
X1098750Y697500D01*
X1395000Y701250D02*
X1391250Y697500D01*
X1395000Y705000D02*
X1395000Y701250D01*
X1394700Y705000D02*
X1395000Y705000D01*
X1394700Y711200D02*
X1394700Y705000D01*
X1608750Y532500D02*
X1335000Y532500D01*
X1612500Y536250D02*
X1608750Y532500D01*
X1612500Y648750D02*
X1612500Y536250D01*
X1616250Y652500D02*
X1612500Y648750D01*
X1623300Y652500D02*
X1616250Y652500D01*
X1623300Y660400D02*
X1623300Y652500D01*
X1653300Y397500D02*
X1653300Y406400D01*
X1811250Y397500D02*
X1653300Y397500D01*
X1815000Y393750D02*
X1811250Y397500D01*
X1815000Y142008D02*
X1815000Y393750D01*
X1817308Y139700D02*
X1815000Y142008D01*
X1076250Y765000D02*
X907500Y765000D01*
X1080000Y761250D02*
X1076250Y765000D01*
X1080000Y641250D02*
X1080000Y761250D01*
X1083750Y637500D02*
X1080000Y641250D01*
X1093945Y637500D02*
X1083750Y637500D01*
X1094500Y638000D02*
X1093945Y637500D01*
X1093945Y638000D02*
X1094500Y638000D01*
X1233108Y120000D02*
X1233108Y114300D01*
X1278750Y120000D02*
X1233108Y120000D01*
X1282500Y123750D02*
X1278750Y120000D01*
X1282500Y228750D02*
X1282500Y123750D01*
X1286250Y232500D02*
X1282500Y228750D01*
X1434261Y232500D02*
X1286250Y232500D01*
X1434261Y288750D02*
X1434261Y232500D01*
X1432500Y288750D02*
X1434261Y288750D01*
X1428750Y292500D02*
X1432500Y288750D01*
X1425000Y292500D02*
X1428750Y292500D01*
X1424700Y292500D02*
X1425000Y292500D01*
X1424700Y304800D02*
X1424700Y292500D01*
X1017033Y945120D02*
X1017777Y944376D01*
X813870Y945120D02*
X802500Y933750D01*
X1017777Y896250D02*
X1017777Y944376D01*
X1017033Y945120D02*
X813870Y945120D01*
X1020000Y228990D02*
X1020000Y195000D01*
X1010080Y606756D02*
X1010824Y607500D01*
X1010080Y238910D02*
X1020000Y228990D01*
X1057500Y607500D02*
X1010824Y607500D01*
X1010080Y606756D02*
X1010080Y238910D01*
X960000Y142500D02*
X960000Y149030D01*
X977420Y201756D02*
X978164Y202500D01*
X960000Y149030D02*
X977420Y166450D01*
X978164Y202500D02*
X982500Y202500D01*
X977420Y166450D02*
X977420Y201756D01*
X408700Y406400D02*
X412500Y406400D01*
X412500Y390000D01*
X420000Y390000D01*
X427500Y382500D01*
X427500Y105000D01*
X420000Y97500D01*
X285000Y97500D01*
X277500Y105000D01*
X277500Y127500D01*
X285000Y135000D01*
X288608Y135000D01*
X293308Y139700D01*
X378700Y355600D02*
X378700Y348800D01*
X390000Y337500D01*
X412500Y337500D01*
X420000Y330000D01*
X420000Y127500D01*
X412500Y120000D01*
X299008Y120000D01*
X293308Y114300D01*
X408700Y304800D02*
X408700Y296200D01*
X397500Y285000D01*
X397500Y217500D01*
X390000Y210000D01*
X277500Y210000D01*
X270000Y202500D01*
X270000Y127500D01*
X262500Y120000D01*
X222808Y120000D01*
X217108Y114300D01*
X367500Y225000D02*
X367500Y285000D01*
X378700Y296200D01*
X378700Y304800D01*
X337500Y247500D02*
X270000Y247500D01*
X270000Y250700D01*
X266700Y254000D01*
G54D12*
X1030350Y111331D02*
X1029271Y110252D01*
X1030350Y163567D02*
X1030350Y111331D01*
X1041400Y174617D02*
X1030350Y163567D01*
X1041400Y190500D02*
X1041400Y174617D01*
X1925477Y525000D02*
X1921748Y521271D01*
X1935000Y525000D02*
X1925477Y525000D01*
X1942500Y532500D02*
X1935000Y525000D01*
X1942500Y756510D02*
X1942500Y532500D01*
X1958564Y756510D02*
X1942500Y756510D01*
X1958564Y756510D02*
X1957500Y756510D01*
X1958564Y889410D02*
X1958564Y756510D01*
X1958564Y889410D02*
X1940474Y907500D01*
X1927500Y907500D02*
X1927500Y915000D01*
X1940474Y907500D02*
X1927500Y907500D01*
X1927500Y915000D02*
X1920000Y922500D01*
X1807500Y922500D01*
X1800000Y915000D01*
X1800000Y885000D01*
X1792500Y877500D01*
X1747500Y877500D01*
X1746300Y876300D02*
X1741108Y876300D01*
X1747500Y877500D02*
X1746300Y876300D01*
X1762500Y759200D02*
X1762500Y727500D01*
X1765300Y762000D02*
X1762500Y759200D01*
X1762500Y727500D02*
X1755000Y720000D01*
X1672500Y720000D01*
X1653300Y720000D02*
X1672500Y720000D01*
X1653300Y711200D02*
X1653300Y720000D01*
X1597500Y720000D02*
X1425000Y720000D01*
X1424700Y719700D02*
X1424700Y711200D01*
X1425000Y720000D02*
X1424700Y719700D01*
X1297500Y517500D02*
X1297500Y472500D01*
X1290000Y517500D02*
X1297500Y517500D01*
X1072500Y847500D02*
X1072500Y827800D01*
X1079500Y827800D01*
X1072500Y825000D02*
X1027500Y825000D01*
X1072500Y827800D02*
X1072500Y825000D01*
X1079500Y827800D02*
X1072500Y827800D01*
X1027500Y825000D02*
X1024700Y827800D01*
X1016000Y827800D01*
X1200000Y405000D02*
X1200000Y217500D01*
X1005000Y825000D02*
X960000Y825000D01*
X1007800Y827800D02*
X1005000Y825000D01*
X1016000Y827800D02*
X1007800Y827800D01*
X960000Y825000D02*
X960000Y827800D01*
X952500Y827800D01*
X945000Y827800D01*
X937500Y832500D02*
X757500Y832500D01*
X945000Y832500D02*
X937500Y832500D01*
X945000Y827800D02*
X945000Y832500D01*
X937500Y832500D02*
X937500Y915000D01*
X757500Y832500D02*
X750000Y825000D01*
X937500Y915000D02*
X945000Y922500D01*
X750000Y825000D02*
X750000Y765000D01*
X945000Y922500D02*
X990000Y922500D01*
X750000Y762700D02*
X749300Y762000D01*
X750000Y765000D02*
X750000Y762700D01*
X749300Y758200D02*
X750000Y757500D01*
X749300Y762000D02*
X749300Y758200D01*
X992333Y922500D02*
X999833Y915000D01*
X990000Y922500D02*
X992333Y922500D01*
X750000Y757500D02*
X750000Y727500D01*
X999833Y915000D02*
X999833Y907500D01*
X750000Y254700D02*
X750000Y345000D01*
X749300Y254000D02*
X750000Y254700D01*
X750000Y727500D02*
X742500Y720000D01*
X999833Y907500D02*
X1001585Y905748D01*
X750000Y345000D02*
X637500Y345000D01*
X885000Y345000D02*
X750000Y345000D01*
X742500Y720000D02*
X637500Y720000D01*
X637300Y345000D02*
X637300Y355600D01*
X637500Y345000D02*
X637300Y345000D01*
X892500Y352500D02*
X885000Y345000D01*
X637300Y720000D02*
X622500Y720000D01*
X637300Y711200D02*
X637300Y720000D01*
X637300Y719800D02*
X637300Y711200D01*
X637500Y720000D02*
X637300Y719800D01*
X892500Y480000D02*
X892500Y352500D01*
X900000Y487500D02*
X892500Y480000D01*
X907500Y487500D02*
X900000Y487500D01*
X937500Y487500D02*
X907500Y487500D01*
X592500Y720000D02*
X408700Y720000D01*
X1424700Y382500D02*
X1424700Y355600D01*
X1425000Y382500D02*
X1424700Y382500D01*
X939400Y485600D02*
X937500Y487500D01*
X941545Y485600D02*
X939400Y485600D01*
X408700Y720000D02*
X408700Y711200D01*
X1642500Y375000D02*
X1642500Y382500D01*
X1653300Y364200D02*
X1642500Y375000D01*
X1653300Y355600D02*
X1653300Y364200D01*
X990000Y140958D02*
X990000Y153750D01*
X987742Y138700D02*
X990000Y140958D01*
X990000Y153750D02*
X993750Y157500D01*
X1001250Y157500D01*
X1007540Y163790D01*
X1007540Y213990D01*
X997500Y224030D01*
X997500Y731250D01*
X993750Y735000D01*
X945000Y735000D01*
X945000Y736145D02*
X941545Y739600D01*
X945000Y735000D02*
X945000Y736145D01*
X1859880Y547500D02*
X1859880Y815322D01*
X1862068Y817510D01*
X1867144Y817510D02*
X1862068Y817510D01*
X1857340Y223910D02*
X1857340Y544960D01*
X1859880Y547500D01*
X1871250Y210000D02*
X1857340Y223910D01*
X1965000Y210000D02*
X1871250Y210000D01*
X1965960Y209040D02*
X1965000Y210000D01*
X1965960Y203200D02*
X1965960Y209040D01*
X1666000Y495000D02*
X1620000Y495000D01*
X1612500Y502500D01*
X1620000Y412500D02*
X1620000Y495000D01*
X1612500Y502500D02*
X1529500Y502500D01*
X1623300Y412500D02*
X1620000Y412500D01*
X1623300Y406400D02*
X1623300Y412500D01*
X1529500Y502500D02*
X1524000Y508000D01*
X1395000Y412500D02*
X1395000Y435000D01*
X1394700Y412500D02*
X1395000Y412500D01*
X1394700Y406400D02*
X1394700Y412500D01*
X1095000Y486655D02*
X1093945Y485600D01*
X1095000Y487500D02*
X1095000Y486655D01*
X1110000Y487500D02*
X1095000Y487500D01*
X1117500Y495000D02*
X1110000Y487500D01*
X1117500Y525000D02*
X1117500Y495000D01*
X1110000Y532500D02*
X1117500Y525000D01*
X1095000Y532500D02*
X1110000Y532500D01*
X1093945Y533555D02*
X1095000Y532500D01*
X1093945Y536400D02*
X1093945Y533555D01*
X937500Y510000D02*
X922500Y510000D01*
X938500Y511000D02*
X937500Y510000D01*
X941545Y511000D02*
X938500Y511000D01*
X945000Y510000D02*
X960000Y510000D01*
X942545Y510000D02*
X945000Y510000D01*
X941545Y511000D02*
X942545Y510000D01*
X922500Y510000D02*
X907500Y525000D01*
X960000Y510000D02*
X967500Y502500D01*
X907500Y525000D02*
X790400Y525000D01*
X967500Y502500D02*
X967500Y192800D01*
X790400Y525000D02*
X790400Y532000D01*
X810000Y525000D02*
X810000Y472500D01*
X967500Y192800D02*
X965200Y190500D01*
X1070800Y871700D02*
X1070800Y877300D01*
X1102500Y870000D02*
X1072500Y870000D01*
X1070800Y871700D01*
X810000Y472500D02*
X802500Y465000D01*
X1102500Y870000D02*
X1102500Y915000D01*
X1102500Y810000D02*
X1102500Y870000D01*
X802500Y465000D02*
X615000Y465000D01*
X1102500Y915000D02*
X1110000Y922500D01*
X1095000Y802500D02*
X1102500Y810000D01*
X615000Y465000D02*
X607500Y457500D01*
X1110000Y922500D02*
X1387500Y922500D01*
X1087500Y802500D02*
X1095000Y802500D01*
X607500Y457500D02*
X607500Y412500D01*
X1387500Y922500D02*
X1395000Y915000D01*
X1087500Y797800D02*
X1087500Y802500D01*
X1079500Y797800D02*
X1087500Y797800D01*
X1072500Y795000D02*
X1027500Y795000D01*
X1072500Y797800D02*
X1072500Y795000D01*
X1079500Y797800D02*
X1072500Y797800D01*
X607300Y412500D02*
X607300Y406400D01*
X607500Y412500D02*
X607300Y412500D01*
X1395000Y915000D02*
X1395000Y787500D01*
X1024700Y797800D02*
X1016000Y797800D01*
X1027500Y795000D02*
X1024700Y797800D01*
X232500Y427500D02*
X232500Y525000D01*
X1394700Y787500D02*
X1394700Y762000D01*
X1395000Y787500D02*
X1394700Y787500D01*
X1612500Y787500D02*
X1395000Y787500D01*
X1005000Y795000D02*
X960000Y795000D01*
X1007800Y797800D02*
X1005000Y795000D01*
X1016000Y797800D02*
X1007800Y797800D01*
X232500Y525900D02*
X240000Y533400D01*
X232500Y525000D02*
X232500Y525900D01*
X1620000Y780000D02*
X1612500Y787500D01*
X960000Y797800D02*
X952500Y797800D01*
X960000Y795000D02*
X960000Y797800D01*
X240000Y533400D02*
X254000Y533400D01*
X1620000Y772500D02*
X1620000Y780000D01*
X1623300Y769200D02*
X1620000Y772500D01*
X1623300Y762000D02*
X1623300Y769200D01*
X378700Y757500D02*
X352500Y757500D01*
X378700Y762000D02*
X378700Y757500D01*
X378700Y768700D02*
X378700Y762000D01*
X382500Y772500D02*
X378700Y768700D01*
X382500Y780000D02*
X382500Y772500D01*
X390000Y787500D02*
X382500Y780000D01*
X599800Y787500D02*
X390000Y787500D01*
X603550Y783750D02*
X599800Y787500D01*
X607300Y780000D02*
X603550Y783750D01*
X607300Y762000D02*
X607300Y780000D01*
X607500Y427500D02*
X232500Y427500D01*
X375000Y427500D02*
X375000Y406400D01*
X378700Y406400D01*
X352500Y360000D02*
X255000Y360000D01*
X247500Y352500D01*
X247500Y255000D01*
X246500Y254000D01*
X241300Y254000D01*
G54D13*
X-31464Y-31464D02*
X-31464Y76429D01*
X-31464Y-31464D02*
X178029Y-31464D01*
X2063464Y-31464D02*
X1853971Y-31464D01*
X2063464Y-31464D02*
X2063464Y76429D01*
X2063464Y1047464D02*
X2063464Y939571D01*
X2063464Y1047464D02*
X1853971Y1047464D01*
X-31464Y1047464D02*
X178029Y1047464D01*
X-31464Y1047464D02*
X-31464Y939571D01*
X-81464Y-31464D02*
X-181464Y-31464D01*
X-131464Y-81464D02*
X-131464Y18536D01*
X-168964Y-31464D02*
G75*
D01*
G02X-168964Y-31464I37500J0*
G01*
X2113464Y-31464D02*
X2213464Y-31464D01*
X2163464Y-81464D02*
X2163464Y18536D01*
X2125964Y-31464D02*
G75*
D01*
G02X2125964Y-31464I37500J0*
G01*
X2150964Y-31464D02*
G75*
D01*
G02X2150964Y-31464I12500J0*
G01*
X-81464Y1047464D02*
X-181464Y1047464D01*
X-131464Y997464D02*
X-131464Y1097464D01*
X-168964Y1047464D02*
G75*
D01*
G02X-168964Y1047464I37500J0*
G01*
X-156464Y1047464D02*
G75*
D01*
G02X-156464Y1047464I25000J0*
G01*
X-143964Y1047464D02*
G75*
D01*
G02X-143964Y1047464I12500J0*
G01*
G54D14*
X1790700Y254000D03*
X1765300Y254000D03*
X1666000Y495000D03*
X266700Y762000D03*
X241300Y762000D03*
X1790700Y762000D03*
X1765300Y762000D03*
X254000Y558800D03*
X254000Y482600D03*
X266700Y254000D03*
X241300Y254000D03*
X774700Y762000D03*
X749300Y762000D03*
X1282700Y762000D03*
X1257300Y762000D03*
X1282700Y254000D03*
X1257300Y254000D03*
X774700Y254000D03*
X749300Y254000D03*
X1041400Y190500D03*
X965200Y190500D03*
G54D15*
X1666000Y520400D03*
X254000Y533400D03*
X254000Y457200D03*
X1066800Y190500D03*
X990600Y190500D03*
G54D16*
X1662825Y517225D02*
X1669175Y517225D01*
X1669175Y523575D01*
X1662825Y523575D01*
X1662825Y517225D01*D02*
X250825Y530225D02*
X257175Y530225D01*
X257175Y536575D01*
X250825Y536575D01*
X250825Y530225D01*D02*
X250825Y454025D02*
X257175Y454025D01*
X257175Y460375D01*
X250825Y460375D01*
X250825Y454025D01*D02*
X1063625Y187325D02*
X1069975Y187325D01*
X1069975Y193675D01*
X1063625Y193675D01*
X1063625Y187325D01*D02*
X987425Y187325D02*
X993775Y187325D01*
X993775Y193675D01*
X987425Y193675D01*
X987425Y187325D01*D02*
G54D17*
X1965960Y203200D03*
X1965960Y228600D03*
G54D18*
X1958564Y756510D03*
G54D19*
X1867144Y817510D03*
G54D20*
X1958564Y889410D03*
G54D21*
X138700Y562800D03*
X138700Y507428D03*
X138700Y452056D03*
X138700Y479742D03*
X138700Y535114D03*
X110252Y465899D03*
X110252Y521271D03*
X110252Y493585D03*
X110252Y548957D03*
X1893300Y562800D03*
X1893300Y507428D03*
X1893300Y535114D03*
X1893300Y479742D03*
X1893300Y452056D03*
X1921748Y521271D03*
X1921748Y548957D03*
X1921748Y493585D03*
X1921748Y465899D03*
X1070800Y138700D03*
X1015428Y138700D03*
X1043114Y138700D03*
X987742Y138700D03*
X960056Y138700D03*
X1029271Y110252D03*
X1056957Y110252D03*
X1001585Y110252D03*
X973899Y110252D03*
X1070800Y877300D03*
X1015428Y877300D03*
X960056Y877300D03*
X987742Y877300D03*
X1043114Y877300D03*
X973899Y905748D03*
X1029271Y905748D03*
X1001585Y905748D03*
X1056957Y905748D03*
G54D22*
X124476Y382460D03*
X124476Y632396D03*
X1907524Y632396D03*
X1907524Y382460D03*
X1140396Y124476D03*
X890460Y124476D03*
X890460Y891524D03*
X1140396Y891524D03*
G54D23*
X217108Y114300D03*
X217108Y139700D03*
X293308Y114300D03*
X293308Y139700D03*
X1741108Y114300D03*
X1741108Y139700D03*
X1817308Y114300D03*
X1817308Y139700D03*
X1741108Y901700D03*
X1741108Y876300D03*
X1817308Y901700D03*
X1817308Y876300D03*
X217108Y901700D03*
X217108Y876300D03*
X725108Y901700D03*
X725108Y876300D03*
X801308Y901700D03*
X801308Y876300D03*
X1309308Y901700D03*
X1309308Y876300D03*
X1233108Y901700D03*
X1233108Y876300D03*
X1309308Y114300D03*
X1309308Y139700D03*
X1233108Y114300D03*
X1233108Y139700D03*
X801308Y114300D03*
X801308Y139700D03*
X725108Y114300D03*
X725108Y139700D03*
X293308Y901700D03*
X293308Y876300D03*
G54D24*
X1524000Y555500D03*
X1524000Y508000D03*
X1524000Y460500D03*
G54D25*
X790400Y532000D03*
X790400Y481200D03*
X765000Y481200D03*
X790400Y506600D03*
X765000Y506600D03*
G54D26*
X765000Y532000D03*
G54D27*
X762355Y529355D02*
X767645Y529355D01*
X767645Y534645D01*
X762355Y534645D01*
X762355Y529355D01*D02*
G54D28*
X378700Y609600D03*
X408700Y609600D03*
X378700Y762000D03*
X408700Y762000D03*
X1623300Y609600D03*
X1653300Y609600D03*
X1623300Y660400D03*
X1653300Y660400D03*
X1623300Y711200D03*
X1653300Y711200D03*
X1623300Y762000D03*
X1653300Y762000D03*
X607300Y406400D03*
X637300Y406400D03*
X1623300Y254000D03*
X1653300Y254000D03*
X1623300Y304800D03*
X1653300Y304800D03*
X1623300Y355600D03*
X1653300Y355600D03*
X1623300Y406400D03*
X1653300Y406400D03*
X607300Y762000D03*
X637300Y762000D03*
X1394700Y406400D03*
X1424700Y406400D03*
X1394700Y711200D03*
X1424700Y711200D03*
X1394700Y762000D03*
X1424700Y762000D03*
X1394700Y660400D03*
X1424700Y660400D03*
X1394700Y609600D03*
X1424700Y609600D03*
X607300Y609600D03*
X637300Y609600D03*
X607300Y660400D03*
X637300Y660400D03*
X607300Y711200D03*
X637300Y711200D03*
X378700Y711200D03*
X408700Y711200D03*
X378700Y660400D03*
X408700Y660400D03*
X1394700Y355600D03*
X1424700Y355600D03*
X1394700Y254000D03*
X1424700Y254000D03*
X1394700Y304800D03*
X1424700Y304800D03*
X607300Y355600D03*
X637300Y355600D03*
X607300Y254000D03*
X637300Y254000D03*
X607300Y304800D03*
X637300Y304800D03*
X378700Y304800D03*
X408700Y304800D03*
X378700Y254000D03*
X408700Y254000D03*
X378700Y355600D03*
X408700Y355600D03*
X378700Y406400D03*
X408700Y406400D03*
G54D29*
X1079500Y797800D03*
X1079500Y827800D03*
X1016000Y797800D03*
X1016000Y827800D03*
X952500Y797800D03*
X952500Y827800D03*
G54D30*
X1093945Y739600D03*
X941545Y714200D03*
X941545Y688800D03*
X941545Y663400D03*
X941545Y638000D03*
X941545Y612600D03*
X941545Y587200D03*
X941545Y536400D03*
X941545Y561800D03*
X941545Y511000D03*
X941545Y460200D03*
X941545Y485600D03*
X941545Y434800D03*
X941545Y409400D03*
X941545Y384000D03*
X941545Y358600D03*
X941545Y257000D03*
X941545Y333200D03*
X941545Y307800D03*
X941545Y282400D03*
X1093945Y587200D03*
X1093945Y714200D03*
X1093945Y688800D03*
X1093945Y663400D03*
X1093945Y638000D03*
X1093945Y612600D03*
X1093945Y536400D03*
X1093945Y561800D03*
X1093945Y511000D03*
X1093945Y460200D03*
X1093945Y485600D03*
X1093945Y434800D03*
X1093945Y257000D03*
X1093945Y409400D03*
X1093945Y384000D03*
X1093945Y358600D03*
X1093945Y333200D03*
X1093945Y307800D03*
X1093945Y282400D03*
X941545Y739600D03*
G54D31*
X1695000Y667500D03*
X1020000Y195000D03*
X1057500Y607500D03*
X697500Y667500D03*
X1327500Y217500D03*
X592500Y292500D03*
X930000Y780000D03*
X532500Y547500D03*
X1380000Y352500D03*
X1372500Y585000D03*
X1350000Y607500D03*
X1297500Y202500D03*
X1365000Y600000D03*
X1027500Y855000D03*
X607500Y562500D03*
X907500Y487500D03*
X592500Y720000D03*
X622500Y720000D03*
X1425000Y382500D03*
X1642500Y382500D03*
X1597500Y720000D03*
X1672500Y720000D03*
X1072500Y847500D03*
X1200000Y217500D03*
X1200000Y405000D03*
X1297500Y472500D03*
X1290000Y517500D03*
X907500Y765000D03*
X1440000Y675000D03*
X1410000Y675000D03*
X1860000Y547500D03*
X285000Y652500D03*
X1080000Y157500D03*
X1335000Y532500D03*
X1395000Y435000D03*
X352500Y757500D03*
X607500Y277500D03*
X907500Y330000D03*
X367500Y225000D03*
X408700Y254000D03*
X337500Y247500D03*
X378700Y254000D03*
X408700Y355600D03*
X352500Y360000D03*

M02*
