M48
METRIC,TZ
VER,1
FMAT,2
DETECT,ON
ATC,ON
T1C4.0000
T2C0.8890
T3C1.1810
T4C1.7800
T5C1.1811
T6C3.0480
T7C0.9652
T8C1.6500
T9C0.9949
T10C0.6000
%
T1
X6.3500Y95.2500
Y6.3500
X196.8500
Y95.2500
T2
X179.0700Y25.4000
X176.5300
X166.6000Y52.0400
Y49.5000
X26.6700Y76.2000
X24.1300
X179.0700
X176.5300
X25.4000Y53.3400
Y55.8800
Y45.7200
Y48.2600
X26.6700Y25.4000
X24.1300
X77.4700Y76.2000
X74.9300
X128.2700
X125.7300
X79.0400Y53.2000
Y48.1200
X76.5000
X79.0400Y50.6600
X76.5000
X128.2700Y25.4000
X125.7300
X77.4700
X74.9300
X106.6800Y19.0500
X104.1400
X99.0600
X96.5200
X109.3945Y73.9600
X94.1545Y71.4200
Y68.8800
Y66.3400
Y63.8000
Y61.2600
Y58.7200
Y53.6400
Y56.1800
Y51.1000
Y46.0200
Y48.5600
Y43.4800
Y40.9400
Y38.4000
Y35.8600
Y25.7000
Y33.3200
Y30.7800
Y28.2400
X109.3945Y58.7200
Y71.4200
Y68.8800
Y66.3400
Y63.8000
Y61.2600
Y53.6400
Y56.1800
Y51.1000
Y46.0200
Y48.5600
Y43.4800
Y25.7000
Y40.9400
Y38.4000
Y35.8600
Y33.3200
Y30.7800
Y28.2400
X94.1545Y73.9600
T3
X196.5960Y20.3200
Y22.8600
T4
X199.6144Y82.5110
T5
X13.8700Y56.2800
Y50.7428
Y45.2056
Y47.9742
Y53.5114
X11.0252Y46.5899
Y52.1271
Y49.3585
Y54.8957
X189.3300Y56.2800
Y50.7428
Y53.5114
Y47.9742
Y45.2056
X192.1748Y52.1271
Y54.8957
Y49.3585
Y46.5899
X107.0800Y13.8700
X101.5428
X104.3114
X98.7742
X96.0056
X102.9271Y11.0252
X105.6957
X100.1585
X97.3899
X107.0800Y87.7300
X101.5428
X96.0056
X98.7742
X104.3114
X97.3899Y90.5748
X102.9271
X100.1585
X105.6957
T6
X12.4476Y38.2460
Y63.2396
X190.7524
Y38.2460
X114.0396Y12.4476
X89.0460
Y89.1524
X114.0396
T7
X21.7108Y11.4300
Y13.9700
X29.3308Y11.4300
Y13.9700
X174.1108Y11.4300
Y13.9700
X181.7308Y11.4300
Y13.9700
X174.1108Y90.1700
Y87.6300
X181.7308Y90.1700
Y87.6300
X21.7108Y90.1700
Y87.6300
X72.5108Y90.1700
Y87.6300
X80.1308Y90.1700
Y87.6300
X130.9308Y90.1700
Y87.6300
X123.3108Y90.1700
Y87.6300
X130.9308Y11.4300
Y13.9700
X123.3108Y11.4300
Y13.9700
X80.1308Y11.4300
Y13.9700
X72.5108Y11.4300
Y13.9700
X29.3308Y90.1700
Y87.6300
T8
X152.4000Y55.5500
Y50.8000
Y46.0500
T9
X76.5000Y53.2000
T10
X169.5000Y66.7500
X102.0000Y19.5000
X105.7500Y60.7500
X69.7500Y66.7500
X132.7500Y21.7500
X59.2500Y29.2500
X93.0000Y78.0000
X53.2500Y54.7500
X138.0000Y35.2500
X137.2500Y58.5000
X135.0000Y60.7500
X129.7500Y20.2500
X136.5000Y60.0000
X102.7500Y85.5000
X60.7500Y56.2500
X90.7500Y48.7500
X59.2500Y72.0000
X62.2500
X142.5000Y38.2500
X164.2500
X159.7500Y72.0000
X167.2500
X107.2500Y84.7500
X120.0000Y21.7500
Y40.5000
X129.7500Y47.2500
X129.0000Y51.7500
X90.7500Y76.5000
X144.0000Y67.5000
X141.0000
X186.0000Y54.7500
X28.5000Y65.2500
X108.0000Y15.7500
X133.5000Y53.2500
X139.5000Y43.5000
X35.2500Y75.7500
X60.7500Y27.7500
X90.7500Y33.0000
X36.7500Y22.5000
X40.8700Y25.4000
X33.7500Y24.7500
X37.8700Y25.4000
X40.8700Y35.5600
X35.2500Y36.0000
M30
