G04 Generated by Ultiboard 13.0 *
%FSLAX34Y34*%
%MOMM*%

%ADD10C,0.0001*%
%ADD11C,0.2540*%
%ADD12C,0.5000*%
%ADD13C,0.1270*%
%ADD14C,1.2700*%
%ADD15R,0.6350X0.6350*%
%ADD16C,0.8890*%
%ADD17C,1.5366*%
%ADD18C,1.5367*%
%ADD19C,3.4036*%
%ADD20C,1.3208*%
%ADD21R,1.6000X3.1500*%
%ADD22C,2.0056*%
%ADD23C,1.6088*%
%ADD24R,0.5291X0.5291*%
%ADD25C,0.9949*%
%ADD26R,1.3000X0.6000*%
%ADD27C,1.2446*%
%ADD28R,1.2446X1.2446*%
%ADD29C,1.0000*%


G04 ColorRGB 00FF00 for the following layer *
%LNCopper Top*%
%LPD*%
G54D10*
G54D11*
X481316Y612446D02*
X481316Y450836D01*
X294640Y127000D02*
X294036Y127604D01*
X294036Y115028D01*
X293308Y114300D01*
X903750Y652500D02*
X521370Y652500D01*
X481316Y612446D01*
X478776Y128364D02*
X478032Y127620D01*
X521250Y382500D02*
X517500Y386250D01*
X517500Y558750D01*
X521250Y562500D01*
X607500Y562500D01*
X937500Y382500D02*
X521250Y382500D01*
X293308Y126876D02*
X293308Y114300D01*
X294052Y127620D02*
X293308Y126876D01*
X697500Y896250D02*
X697500Y667500D01*
X701250Y900000D02*
X697500Y896250D01*
X720000Y900000D02*
X701250Y900000D01*
X721700Y901700D02*
X720000Y900000D01*
X725108Y901700D02*
X721700Y901700D01*
X285000Y472440D02*
X285000Y652500D01*
X198750Y472440D02*
X285000Y472440D01*
X195000Y468750D02*
X198750Y472440D01*
X195000Y101250D02*
X195000Y468750D01*
X198750Y97500D02*
X195000Y101250D01*
X1082294Y97500D02*
X198750Y97500D01*
X1082294Y150000D02*
X1082294Y97500D01*
X1080000Y150000D02*
X1082294Y150000D01*
X1080000Y157500D02*
X1080000Y150000D01*
X532500Y416250D02*
X532500Y547500D01*
X536250Y412500D02*
X532500Y416250D01*
X938445Y412500D02*
X536250Y412500D01*
X941545Y409400D02*
X938445Y412500D01*
X547950Y501977D02*
X547950Y485500D01*
X547950Y518455D02*
X547950Y501977D01*
X783750Y518455D02*
X547950Y518455D01*
X783750Y517500D02*
X783750Y518455D01*
X787500Y513750D02*
X783750Y517500D01*
X787500Y509500D02*
X787500Y513750D01*
X790400Y506600D02*
X787500Y509500D01*
X942745Y690000D02*
X941545Y688800D01*
X945000Y690000D02*
X942745Y690000D01*
X971250Y690000D02*
X945000Y690000D01*
X975000Y693750D02*
X971250Y690000D01*
X975000Y888750D02*
X975000Y693750D01*
X978750Y892500D02*
X975000Y888750D01*
X985393Y892500D02*
X978750Y892500D01*
X985393Y918750D02*
X985393Y892500D01*
X1942500Y454405D02*
X1942500Y918750D01*
X1897500Y454405D02*
X1942500Y454405D01*
X1897500Y456256D02*
X1897500Y454405D01*
X1893300Y452056D02*
X1897500Y456256D01*
X1235800Y901700D02*
X1233108Y901700D01*
X1237500Y900000D02*
X1235800Y901700D01*
X1237500Y891286D02*
X1237500Y900000D01*
X1436250Y891286D02*
X1237500Y891286D01*
X1440000Y888750D02*
X1436250Y891286D01*
X1440000Y675000D02*
X1440000Y888750D01*
X772500Y532000D02*
X765000Y532000D01*
X772500Y532500D02*
X772500Y532000D01*
X772500Y581250D02*
X772500Y532500D01*
X776250Y585000D02*
X772500Y581250D01*
X939345Y585000D02*
X776250Y585000D01*
X941545Y587200D02*
X939345Y585000D01*
X1093945Y336445D02*
X1093945Y333200D01*
X1095000Y337500D02*
X1093945Y336445D01*
X1346250Y337500D02*
X1095000Y337500D01*
X1350000Y341250D02*
X1346250Y337500D01*
X1350000Y607500D02*
X1350000Y341250D01*
X1353750Y202500D02*
X1297500Y202500D01*
X1357500Y206250D02*
X1353750Y202500D01*
X1357500Y600000D02*
X1357500Y206250D01*
X1365000Y600000D02*
X1357500Y600000D01*
X771300Y481200D02*
X765000Y481200D01*
X772500Y480000D02*
X771300Y481200D01*
X772500Y468750D02*
X772500Y480000D01*
X776250Y465000D02*
X772500Y468750D01*
X918750Y465000D02*
X776250Y465000D01*
X922500Y468750D02*
X918750Y465000D01*
X922500Y528750D02*
X922500Y468750D01*
X926250Y532500D02*
X922500Y528750D01*
X937645Y532500D02*
X926250Y532500D01*
X941545Y536400D02*
X937645Y532500D01*
X1282700Y757500D02*
X1282700Y762000D01*
X1406250Y757500D02*
X1282700Y757500D01*
X1410000Y753750D02*
X1406250Y757500D01*
X1410000Y675000D02*
X1410000Y753750D01*
X938345Y330000D02*
X941545Y333200D01*
X907500Y330000D02*
X938345Y330000D01*
X918750Y277500D02*
X607500Y277500D01*
X922500Y273750D02*
X918750Y277500D01*
X922500Y243750D02*
X922500Y273750D01*
X926250Y240000D02*
X922500Y243750D01*
X1023750Y240000D02*
X926250Y240000D01*
X1027500Y243750D02*
X1023750Y240000D01*
X1027500Y401250D02*
X1027500Y243750D01*
X1031250Y405000D02*
X1027500Y401250D01*
X1093945Y405000D02*
X1031250Y405000D01*
X1093945Y409400D02*
X1093945Y405000D01*
X1027500Y723750D02*
X1027500Y855000D01*
X1031250Y720000D02*
X1027500Y723750D01*
X1093945Y720000D02*
X1031250Y720000D01*
X1093945Y714200D02*
X1093945Y720000D01*
X293308Y906692D02*
X293308Y901700D01*
X292500Y907500D02*
X293308Y906692D01*
X292500Y911250D02*
X292500Y907500D01*
X296250Y915000D02*
X292500Y911250D01*
X926250Y915000D02*
X296250Y915000D01*
X930000Y911250D02*
X926250Y915000D01*
X930000Y780000D02*
X930000Y911250D01*
X1093945Y261445D02*
X1093945Y257000D01*
X1095000Y262500D02*
X1093945Y261445D01*
X1095000Y266250D02*
X1095000Y262500D01*
X1098750Y270000D02*
X1095000Y266250D01*
X1323750Y270000D02*
X1098750Y270000D01*
X1327500Y266250D02*
X1323750Y270000D01*
X1327500Y217500D02*
X1327500Y266250D01*
X1695000Y896250D02*
X1695000Y667500D01*
X1698750Y900000D02*
X1695000Y896250D01*
X1740000Y900000D02*
X1698750Y900000D01*
X1740000Y900592D02*
X1740000Y900000D01*
X1741108Y901700D02*
X1740000Y900592D01*
X933750Y292500D02*
X592500Y292500D01*
X937500Y288750D02*
X933750Y292500D01*
X937500Y285000D02*
X937500Y288750D01*
X938945Y285000D02*
X937500Y285000D01*
X941545Y282400D02*
X938945Y285000D01*
X1372500Y352500D02*
X1372500Y585000D01*
X1380000Y352500D02*
X1372500Y352500D01*
X1312500Y117492D02*
X1309308Y114300D01*
X1312500Y120000D02*
X1312500Y117492D01*
X1376250Y120000D02*
X1312500Y120000D01*
X1380000Y123750D02*
X1376250Y120000D01*
X1380000Y352500D02*
X1380000Y123750D01*
X1095000Y359655D02*
X1093945Y358600D01*
X1095000Y360000D02*
X1095000Y359655D01*
X1331250Y360000D02*
X1095000Y360000D01*
X1335000Y363750D02*
X1331250Y360000D01*
X1335000Y532500D02*
X1335000Y363750D01*
X907500Y656250D02*
X903750Y652500D01*
X907500Y765000D02*
X907500Y656250D01*
X750000Y611250D02*
X750000Y518455D01*
X753750Y615000D02*
X750000Y611250D01*
X939145Y615000D02*
X753750Y615000D01*
X941545Y612600D02*
X939145Y615000D01*
X801308Y118808D02*
X801308Y114300D01*
X802500Y120000D02*
X801308Y118808D01*
X869632Y120000D02*
X802500Y120000D01*
X869632Y198750D02*
X869632Y120000D01*
X870000Y198750D02*
X869632Y198750D01*
X873750Y202500D02*
X870000Y198750D01*
X1020000Y202500D02*
X873750Y202500D01*
X1020000Y195000D02*
X1020000Y202500D01*
X1093945Y607500D02*
X1057500Y607500D01*
X1093945Y612600D02*
X1093945Y607500D01*
X939000Y384000D02*
X937500Y382500D01*
X941545Y384000D02*
X939000Y384000D01*
X481316Y450836D02*
X444500Y414020D01*
X323324Y414020D01*
X322580Y127744D02*
X321836Y127000D01*
X323324Y414020D02*
X322580Y413276D01*
X321836Y127000D02*
X294640Y127000D01*
X322580Y413276D02*
X322580Y127744D01*
X987742Y877300D02*
X987742Y872258D01*
X945000Y666855D02*
X941545Y663400D01*
X945000Y667500D02*
X945000Y666855D01*
X986250Y667500D02*
X945000Y667500D01*
X990000Y671250D02*
X986250Y667500D01*
X990000Y870000D02*
X990000Y671250D01*
X987742Y872258D02*
X990000Y870000D01*
X1942500Y918750D02*
X1938750Y922500D01*
X986250Y922500D02*
X985393Y918750D01*
X1938750Y922500D02*
X986250Y922500D01*
X1093945Y384000D02*
X1089000Y384000D01*
X1087500Y382500D01*
X1080000Y382500D01*
X1072500Y375000D01*
X1072500Y240000D01*
X1065000Y232500D01*
X918750Y232500D01*
X915000Y236250D01*
X915000Y262500D01*
X907500Y270000D01*
X727500Y270000D01*
X720000Y262500D01*
X720000Y232500D01*
X712500Y225000D01*
X367500Y225000D01*
X408700Y254000D02*
X405000Y247500D01*
X397500Y240000D01*
X337500Y240000D01*
X337500Y247500D01*
X941545Y307800D02*
X937800Y307800D01*
X937500Y307500D01*
X390000Y307500D01*
X382500Y300000D01*
X382500Y255000D01*
X378700Y254000D01*
G54D12*
X1029271Y110080D02*
X1001757Y110080D01*
X105000Y517500D02*
X105000Y495000D01*
X106481Y517500D02*
X105000Y517500D01*
X110252Y521271D02*
X106481Y517500D01*
X106415Y493585D02*
X110252Y493585D01*
X105000Y495000D02*
X106415Y493585D01*
X111331Y492506D02*
X110252Y493585D01*
X251812Y492506D02*
X111331Y492506D01*
X251812Y492506D02*
X254000Y490318D01*
X254000Y482600D02*
X254000Y490318D01*
X1920000Y517500D02*
X1920000Y495000D01*
X1920000Y519523D02*
X1920000Y517500D01*
X1921748Y521271D02*
X1920000Y519523D01*
X1920333Y495000D02*
X1921748Y493585D01*
X1920000Y495000D02*
X1920333Y495000D01*
X1747500Y876300D02*
X1741108Y876300D01*
X1747500Y772500D02*
X1747500Y876300D01*
X1755000Y765000D02*
X1747500Y772500D01*
X1762500Y765000D02*
X1755000Y765000D01*
X1762500Y764800D02*
X1762500Y765000D01*
X1765300Y762000D02*
X1762500Y764800D01*
X1672500Y720000D02*
X1597500Y720000D01*
X1597500Y660000D01*
X1590000Y652500D01*
X1267500Y652500D01*
X1260000Y660000D01*
X1270000Y532500D02*
X1270000Y652500D01*
X1267500Y652500D01*
X1260000Y660000D02*
X1260000Y759300D01*
X1270000Y532500D02*
X1270000Y517500D01*
X1275000Y532500D02*
X1275000Y517500D01*
X1270000Y532500D02*
X1275000Y532500D01*
X1260000Y759300D02*
X1257300Y762000D01*
X1254300Y765000D01*
X1267500Y517500D02*
X1102500Y517500D01*
X1270000Y517500D02*
X1267500Y517500D01*
X1275000Y517500D02*
X1290000Y517500D01*
X1254300Y765000D02*
X1245000Y765000D01*
X1102500Y517500D02*
X1095000Y511000D01*
X1245000Y765000D02*
X1237500Y772500D01*
X1095000Y511000D02*
X1093945Y511000D01*
X1237500Y772500D02*
X1237500Y876300D01*
X1237500Y847500D02*
X1072500Y847500D01*
X1237500Y876300D02*
X1233108Y876300D01*
X1297500Y472500D02*
X1297500Y412500D01*
X1290000Y405000D01*
X1200000Y405000D01*
X1200000Y187500D02*
X1200000Y217500D01*
X727500Y217500D01*
X1237500Y187500D02*
X1069800Y187500D01*
X727500Y247500D02*
X727500Y142092D01*
X1069800Y187500D02*
X1066800Y190500D01*
X1237500Y247500D02*
X1237500Y142500D01*
X727500Y142092D02*
X725108Y139700D01*
X735000Y255000D02*
X727500Y247500D01*
X1235908Y142500D02*
X1233108Y139700D01*
X1237500Y142500D02*
X1235908Y142500D01*
X1237500Y135308D02*
X1233108Y139700D01*
X1237500Y135000D02*
X1237500Y135308D01*
X1245000Y255000D02*
X1237500Y247500D01*
X749300Y255000D02*
X735000Y255000D01*
X1282500Y135000D02*
X1237500Y135000D01*
X1252500Y255000D02*
X1245000Y255000D01*
X749300Y254400D02*
X749300Y255000D01*
X749300Y254000D02*
X749300Y254400D01*
X749300Y765000D02*
X735000Y765000D01*
X749300Y762000D02*
X749300Y765000D01*
X1290000Y127500D02*
X1282500Y135000D01*
X1253500Y254000D02*
X1252500Y255000D01*
X1257300Y254000D02*
X1253500Y254000D01*
X732608Y765000D02*
X725108Y772500D01*
X735000Y765000D02*
X732608Y765000D01*
X1027500Y900000D02*
X1005000Y900000D01*
X1005000Y902333D01*
X1001585Y905748D01*
X1290000Y105000D02*
X1290000Y127500D01*
X725108Y772500D02*
X725108Y876300D01*
X1029271Y905748D02*
X1029271Y901771D01*
X1027500Y900000D01*
X1297500Y97500D02*
X1290000Y105000D01*
X1417500Y97500D02*
X1297500Y97500D01*
X1425000Y105000D02*
X1417500Y97500D01*
X622500Y720000D02*
X592500Y720000D01*
X1425000Y382500D02*
X1425000Y105000D01*
X592500Y720000D02*
X592500Y772500D01*
X1642500Y382500D02*
X1425000Y382500D01*
X907500Y487500D02*
X795000Y487500D01*
X592500Y772500D02*
X585000Y780000D01*
X1650000Y382500D02*
X1642500Y382500D01*
X795000Y485800D02*
X790400Y481200D01*
X795000Y487500D02*
X795000Y485800D01*
X585000Y780000D02*
X247500Y780000D01*
X1650000Y262500D02*
X1650000Y382500D01*
X247500Y780000D02*
X240000Y772500D01*
X450000Y532500D02*
X450000Y780000D01*
X1657500Y255000D02*
X1650000Y262500D01*
X240000Y772500D02*
X240000Y765000D01*
X450000Y532500D02*
X450000Y465000D01*
X465000Y532500D02*
X450000Y532500D01*
X1740000Y255000D02*
X1657500Y255000D01*
X240000Y765000D02*
X240000Y763300D01*
X225000Y763300D01*
X241300Y762000D02*
X240000Y763300D01*
X241300Y762000D01*
X450000Y465000D02*
X442500Y457500D01*
X465000Y530500D02*
X465000Y532500D01*
X468050Y530500D02*
X465000Y530500D01*
X1740000Y255000D02*
X1740000Y142500D01*
X1762500Y255000D02*
X1740000Y255000D01*
X225000Y763300D02*
X217500Y770800D01*
X442500Y457500D02*
X262500Y457500D01*
X1740000Y140808D02*
X1741108Y139700D01*
X1740000Y142500D02*
X1740000Y140808D01*
X1965000Y225000D02*
X1740000Y225000D01*
X1764300Y255000D02*
X1762500Y255000D01*
X1765300Y254000D02*
X1764300Y255000D01*
X217500Y772500D02*
X217500Y870000D01*
X217500Y770800D02*
X217500Y772500D01*
X262500Y457500D02*
X255000Y457200D01*
X1965960Y225960D02*
X1965000Y225000D01*
X1965960Y228600D02*
X1965960Y225960D01*
X217108Y870392D02*
X217108Y876300D01*
X217500Y870000D02*
X217108Y870392D01*
X254700Y457200D02*
X254000Y457200D01*
X255000Y457200D02*
X254700Y457200D01*
X247500Y457200D02*
X254000Y457200D01*
X247500Y255000D02*
X247500Y457200D01*
X246500Y254000D02*
X247500Y255000D01*
X241300Y254000D02*
X246500Y254000D01*
X240300Y255000D02*
X225000Y255000D01*
X241300Y254000D02*
X240300Y255000D01*
X225000Y255000D02*
X217500Y247500D01*
X217500Y142500D01*
X217500Y140092D02*
X217108Y139700D01*
X217500Y142500D02*
X217500Y140092D01*
X1067100Y135000D02*
X1043114Y135000D01*
X1070800Y138700D02*
X1067100Y135000D01*
X1043114Y135000D02*
X1043114Y138700D01*
X1043114Y141886D02*
X1042500Y142500D01*
X1043114Y138700D02*
X1043114Y141886D01*
X1042500Y142500D02*
X1042500Y146250D01*
X1038750Y150000D01*
X1038750Y160551D01*
X1036407Y162894D02*
X1038750Y160551D01*
X1036407Y162894D02*
X997303Y162894D01*
X994960Y165237D01*
X994960Y190040D01*
X994500Y190500D02*
X990600Y190500D01*
X994960Y190040D02*
X994500Y190500D01*
X944445Y742500D02*
X941545Y739600D01*
X945000Y877500D02*
X945000Y742500D01*
X944445Y742500D01*
X952500Y877500D02*
X945000Y877500D01*
X945000Y927932D01*
X960056Y877300D02*
X952700Y877300D01*
X952500Y877500D01*
X945000Y926250D02*
X945000Y922500D01*
X956370Y937620D02*
X945000Y926250D01*
X942812Y930120D02*
X945000Y927932D01*
X942812Y930120D02*
X108870Y930120D01*
X1941170Y937620D02*
X956370Y937620D01*
X108870Y930120D02*
X82260Y903510D01*
X1957620Y921170D02*
X1941170Y937620D01*
X82260Y903510D02*
X82260Y456170D01*
X1957620Y442750D02*
X1957620Y921170D01*
X82260Y456170D02*
X96725Y441705D01*
X1957620Y442750D02*
X1942732Y427862D01*
X96725Y441705D02*
X128349Y441705D01*
X1883994Y427862D02*
X1942732Y427862D01*
X128349Y441705D02*
X138700Y452056D01*
X1883994Y427862D02*
X1871646Y440210D01*
X1871646Y475556D02*
X1871646Y440210D01*
X1876090Y480000D02*
X1871646Y475556D01*
X1890000Y480000D02*
X1876090Y480000D01*
X1890258Y479742D02*
X1890000Y480000D01*
X1893300Y479742D02*
X1890258Y479742D01*
X142200Y562800D02*
X138700Y562800D01*
X142500Y562500D02*
X142200Y562800D01*
X254000Y562500D02*
X142500Y562500D01*
X135000Y562500D02*
X135000Y538814D01*
X135300Y562800D02*
X135000Y562500D01*
X138700Y562800D02*
X135300Y562800D01*
X254000Y558800D02*
X254000Y562500D01*
X135000Y538814D02*
X138700Y535114D01*
X1860000Y547500D02*
X1665000Y547500D01*
X1530000Y547500D01*
X1666000Y547500D02*
X1665000Y547500D01*
X1666000Y520400D02*
X1666000Y547500D01*
X1530000Y549500D02*
X1524000Y555500D01*
X1530000Y547500D02*
X1530000Y549500D01*
X1890000Y562500D02*
X1890000Y538414D01*
X1890300Y562800D02*
X1890000Y562500D01*
X1893300Y562800D02*
X1890300Y562800D01*
X1890686Y532500D02*
X1882500Y532500D01*
X1893300Y535114D02*
X1890686Y532500D01*
X1890000Y538414D02*
X1893300Y535114D01*
X1882500Y532500D02*
X1875000Y525000D01*
X1875000Y502500D01*
X1867500Y495000D01*
X1666000Y495000D01*
X1666000Y495000D01*
X1515000Y510000D02*
X1395000Y510000D01*
X1517000Y508000D02*
X1515000Y510000D01*
X1524000Y508000D02*
X1517000Y508000D01*
X1395000Y435000D02*
X1395000Y622500D01*
X1387500Y630000D01*
X1320000Y630000D01*
X1312500Y622500D01*
X1312500Y502500D01*
X1305000Y495000D01*
X1270000Y495000D01*
X1270000Y483500D01*
X1270000Y480000D02*
X1095000Y480000D01*
X1270000Y483500D02*
X1270000Y480000D01*
X1093945Y481055D02*
X1093945Y485600D01*
X1095000Y480000D02*
X1093945Y481055D01*
X1093945Y532500D02*
X1072500Y532500D01*
X1093945Y536400D02*
X1093945Y532500D01*
X1093945Y538945D02*
X1095000Y540000D01*
X1093945Y536400D02*
X1093945Y538945D01*
X1095000Y540000D02*
X1110000Y540000D01*
X1072500Y532500D02*
X1065000Y525000D01*
X1110000Y540000D02*
X1117500Y547500D01*
X1065000Y525000D02*
X1065000Y517500D01*
X1117500Y547500D02*
X1117500Y757500D01*
X1065000Y517500D02*
X1057500Y510000D01*
X1117500Y757500D02*
X1110000Y765000D01*
X1057500Y510000D02*
X945000Y510000D01*
X1110000Y765000D02*
X1057500Y765000D01*
X942545Y510000D02*
X941545Y511000D01*
X945000Y510000D02*
X942545Y510000D01*
X1057500Y765000D02*
X1050000Y772500D01*
X1050000Y877300D01*
X1043114Y877300D01*
X1065000Y877500D02*
X1050000Y877500D01*
X1049800Y877300D01*
X1043114Y877300D01*
X1070800Y877300D02*
X1065200Y877300D01*
X1065000Y877500D01*
X254000Y540000D02*
X254000Y533400D01*
X255000Y540000D02*
X254000Y540000D01*
X262500Y540000D02*
X255000Y540000D01*
X270000Y547500D02*
X262500Y540000D01*
X270000Y637500D02*
X270000Y547500D01*
X262500Y645000D02*
X270000Y637500D01*
X262500Y727500D02*
X262500Y645000D01*
X270000Y735000D02*
X262500Y727500D01*
X345000Y735000D02*
X270000Y735000D01*
X352500Y742500D02*
X345000Y735000D01*
X352500Y757500D02*
X352500Y742500D01*
X408700Y355600D02*
X405000Y360000D01*
X352500Y360000D01*
G54D13*
X-31464Y-31464D02*
X-31464Y76429D01*
X-31464Y-31464D02*
X178029Y-31464D01*
X2063464Y-31464D02*
X1853971Y-31464D01*
X2063464Y-31464D02*
X2063464Y76429D01*
X2063464Y1047464D02*
X2063464Y939571D01*
X2063464Y1047464D02*
X1853971Y1047464D01*
X-31464Y1047464D02*
X178029Y1047464D01*
X-31464Y1047464D02*
X-31464Y939571D01*
X-81464Y-31464D02*
X-181464Y-31464D01*
X-131464Y-81464D02*
X-131464Y18536D01*
X-168964Y-31464D02*
G75*
D01*
G02X-168964Y-31464I37500J0*
G01*
X2113464Y-31464D02*
X2213464Y-31464D01*
X2163464Y-81464D02*
X2163464Y18536D01*
X2125964Y-31464D02*
G75*
D01*
G02X2125964Y-31464I37500J0*
G01*
X2150964Y-31464D02*
G75*
D01*
G02X2150964Y-31464I12500J0*
G01*
X-81464Y1047464D02*
X-181464Y1047464D01*
X-131464Y997464D02*
X-131464Y1097464D01*
X-168964Y1047464D02*
G75*
D01*
G02X-168964Y1047464I37500J0*
G01*
X-156464Y1047464D02*
G75*
D01*
G02X-156464Y1047464I25000J0*
G01*
X-143964Y1047464D02*
G75*
D01*
G02X-143964Y1047464I12500J0*
G01*
G54D14*
X1790700Y254000D03*
X1765300Y254000D03*
X1666000Y495000D03*
X266700Y762000D03*
X241300Y762000D03*
X1790700Y762000D03*
X1765300Y762000D03*
X254000Y558800D03*
X254000Y482600D03*
X266700Y254000D03*
X241300Y254000D03*
X774700Y762000D03*
X749300Y762000D03*
X1282700Y762000D03*
X1257300Y762000D03*
X1282700Y254000D03*
X1257300Y254000D03*
X774700Y254000D03*
X749300Y254000D03*
X1041400Y190500D03*
X965200Y190500D03*
G54D15*
X1666000Y520400D03*
X254000Y533400D03*
X254000Y457200D03*
X1066800Y190500D03*
X990600Y190500D03*
G54D16*
X1662825Y517225D02*
X1669175Y517225D01*
X1669175Y523575D01*
X1662825Y523575D01*
X1662825Y517225D01*D02*
X250825Y530225D02*
X257175Y530225D01*
X257175Y536575D01*
X250825Y536575D01*
X250825Y530225D01*D02*
X250825Y454025D02*
X257175Y454025D01*
X257175Y460375D01*
X250825Y460375D01*
X250825Y454025D01*D02*
X1063625Y187325D02*
X1069975Y187325D01*
X1069975Y193675D01*
X1063625Y193675D01*
X1063625Y187325D01*D02*
X987425Y187325D02*
X993775Y187325D01*
X993775Y193675D01*
X987425Y193675D01*
X987425Y187325D01*D02*
G54D17*
X1965960Y203200D03*
X1965960Y228600D03*
G54D18*
X138700Y562800D03*
X138700Y507428D03*
X138700Y452056D03*
X138700Y479742D03*
X138700Y535114D03*
X110252Y465899D03*
X110252Y521271D03*
X110252Y493585D03*
X110252Y548957D03*
X1893300Y562800D03*
X1893300Y507428D03*
X1893300Y535114D03*
X1893300Y479742D03*
X1893300Y452056D03*
X1921748Y521271D03*
X1921748Y548957D03*
X1921748Y493585D03*
X1921748Y465899D03*
X1070800Y138700D03*
X1015428Y138700D03*
X1043114Y138700D03*
X987742Y138700D03*
X960056Y138700D03*
X1029271Y110252D03*
X1056957Y110252D03*
X1001585Y110252D03*
X973899Y110252D03*
X1070800Y877300D03*
X1015428Y877300D03*
X960056Y877300D03*
X987742Y877300D03*
X1043114Y877300D03*
X973899Y905748D03*
X1029271Y905748D03*
X1001585Y905748D03*
X1056957Y905748D03*
G54D19*
X124476Y382460D03*
X124476Y632396D03*
X1907524Y632396D03*
X1907524Y382460D03*
X1140396Y124476D03*
X890460Y124476D03*
X890460Y891524D03*
X1140396Y891524D03*
G54D20*
X217108Y114300D03*
X217108Y139700D03*
X293308Y114300D03*
X293308Y139700D03*
X1741108Y114300D03*
X1741108Y139700D03*
X1817308Y114300D03*
X1817308Y139700D03*
X1741108Y901700D03*
X1741108Y876300D03*
X1817308Y901700D03*
X1817308Y876300D03*
X217108Y901700D03*
X217108Y876300D03*
X725108Y901700D03*
X725108Y876300D03*
X801308Y901700D03*
X801308Y876300D03*
X1309308Y901700D03*
X1309308Y876300D03*
X1233108Y901700D03*
X1233108Y876300D03*
X1309308Y114300D03*
X1309308Y139700D03*
X1233108Y114300D03*
X1233108Y139700D03*
X801308Y114300D03*
X801308Y139700D03*
X725108Y114300D03*
X725108Y139700D03*
X293308Y901700D03*
X293308Y876300D03*
G54D21*
X1270000Y483500D03*
X1270000Y532500D03*
G54D22*
X1524000Y555500D03*
X1524000Y508000D03*
X1524000Y460500D03*
G54D23*
X790400Y532000D03*
X790400Y481200D03*
X765000Y481200D03*
X790400Y506600D03*
X765000Y506600D03*
G54D24*
X765000Y532000D03*
G54D25*
X762355Y529355D02*
X767645Y529355D01*
X767645Y534645D01*
X762355Y534645D01*
X762355Y529355D01*D02*
G54D26*
X468050Y485500D03*
X547950Y485500D03*
X468050Y530500D03*
X547950Y530500D03*
G54D27*
X1093945Y739600D03*
X941545Y714200D03*
X941545Y688800D03*
X941545Y663400D03*
X941545Y638000D03*
X941545Y612600D03*
X941545Y587200D03*
X941545Y536400D03*
X941545Y561800D03*
X941545Y511000D03*
X941545Y460200D03*
X941545Y485600D03*
X941545Y434800D03*
X941545Y409400D03*
X941545Y384000D03*
X941545Y358600D03*
X941545Y257000D03*
X941545Y333200D03*
X941545Y307800D03*
X941545Y282400D03*
X1093945Y587200D03*
X1093945Y714200D03*
X1093945Y688800D03*
X1093945Y663400D03*
X1093945Y638000D03*
X1093945Y612600D03*
X1093945Y536400D03*
X1093945Y561800D03*
X1093945Y511000D03*
X1093945Y460200D03*
X1093945Y485600D03*
X1093945Y434800D03*
X1093945Y257000D03*
X1093945Y409400D03*
X1093945Y384000D03*
X1093945Y358600D03*
X1093945Y333200D03*
X1093945Y307800D03*
X1093945Y282400D03*
G54D28*
X941545Y739600D03*
G54D29*
X1695000Y667500D03*
X1020000Y195000D03*
X1057500Y607500D03*
X697500Y667500D03*
X1327500Y217500D03*
X592500Y292500D03*
X930000Y780000D03*
X532500Y547500D03*
X1380000Y352500D03*
X1372500Y585000D03*
X1350000Y607500D03*
X1297500Y202500D03*
X1365000Y600000D03*
X1027500Y855000D03*
X607500Y562500D03*
X907500Y487500D03*
X592500Y720000D03*
X622500Y720000D03*
X1425000Y382500D03*
X1642500Y382500D03*
X1597500Y720000D03*
X1672500Y720000D03*
X1072500Y847500D03*
X1200000Y217500D03*
X1200000Y405000D03*
X1297500Y472500D03*
X1290000Y517500D03*
X907500Y765000D03*
X1440000Y675000D03*
X1410000Y675000D03*
X1860000Y547500D03*
X285000Y652500D03*
X1080000Y157500D03*
X1335000Y532500D03*
X1395000Y435000D03*
X352500Y757500D03*
X607500Y277500D03*
X907500Y330000D03*
X367500Y225000D03*
X408700Y254000D03*
X337500Y247500D03*
X378700Y254000D03*
X408700Y355600D03*
X352500Y360000D03*

M02*
