G04 Generated by Ultiboard 13.0 *
%FSLAX34Y34*%
%MOMM*%

%ADD10C,0.0001*%
%ADD11C,0.1556*%
%ADD12C,0.2000*%
%ADD13C,0.2032*%
%ADD14C,0.1270*%


G04 ColorRGB FF14FF for the following layer *
%LNSilkscreen Bottom*%
%LPD*%
G54D10*
G54D11*
X1916460Y207936D02*
X1914460Y209927D01*
X1914460Y211918D01*
X1916460Y213909D01*
X1924460Y213909D01*
X1914460Y219882D02*
X1919460Y219882D01*
X1922460Y222869D01*
X1924460Y222869D01*
X1924460Y216896D01*
X1922460Y216896D01*
X170700Y554836D02*
X168700Y556827D01*
X168700Y558818D01*
X170700Y560809D01*
X178700Y560809D01*
X172700Y569769D02*
X172700Y563796D01*
X178700Y568773D01*
X168700Y568773D01*
X168700Y567778D02*
X168700Y569769D01*
X1861300Y570764D02*
X1863300Y568773D01*
X1863300Y566782D01*
X1861300Y564791D01*
X1853300Y564791D01*
X1855300Y561804D02*
X1853300Y559813D01*
X1853300Y557822D01*
X1855300Y555831D01*
X1856300Y555831D01*
X1863300Y561804D01*
X1863300Y555831D01*
X1862300Y555831D01*
X1078764Y170700D02*
X1076773Y168700D01*
X1074782Y168700D01*
X1072791Y170700D01*
X1072791Y178700D01*
X1068809Y176700D02*
X1066818Y178700D01*
X1066818Y168700D01*
X1069804Y168700D02*
X1063831Y168700D01*
X406144Y581600D02*
X406144Y591600D01*
X402162Y591600D01*
X400171Y589600D01*
X400171Y588600D01*
X402162Y586600D01*
X406144Y586600D01*
X405149Y586600D02*
X400171Y581600D01*
X397184Y589600D02*
X395193Y591600D01*
X393202Y591600D01*
X391211Y589600D01*
X391211Y588600D01*
X397184Y581600D01*
X391211Y581600D01*
X391211Y582600D01*
X382251Y591600D02*
X388224Y591600D01*
X388224Y587600D01*
X384242Y587600D01*
X382251Y585600D01*
X382251Y583600D01*
X384242Y581600D01*
X388224Y581600D01*
X401664Y734000D02*
X401664Y744000D01*
X397682Y744000D01*
X395691Y742000D01*
X395691Y741000D01*
X397682Y739000D01*
X401664Y739000D01*
X400669Y739000D02*
X395691Y734000D01*
X391709Y742000D02*
X389718Y744000D01*
X389718Y734000D01*
X392704Y734000D02*
X386731Y734000D01*
X1650744Y581600D02*
X1650744Y591600D01*
X1646762Y591600D01*
X1644771Y589600D01*
X1644771Y588600D01*
X1646762Y586600D01*
X1650744Y586600D01*
X1649749Y586600D02*
X1644771Y581600D01*
X1641784Y589600D02*
X1639793Y591600D01*
X1637802Y591600D01*
X1635811Y589600D01*
X1635811Y588600D01*
X1641784Y581600D01*
X1635811Y581600D01*
X1635811Y582600D01*
X1628842Y581600D02*
X1630833Y581600D01*
X1632824Y583600D01*
X1632824Y585600D01*
X1631829Y586600D01*
X1632824Y587600D01*
X1632824Y589600D01*
X1630833Y591600D01*
X1628842Y591600D01*
X1626851Y589600D01*
X1626851Y587600D01*
X1627847Y586600D01*
X1626851Y585600D01*
X1626851Y583600D01*
X1628842Y581600D01*
X1631829Y586600D02*
X1627847Y586600D01*
X1650744Y632400D02*
X1650744Y642400D01*
X1646762Y642400D01*
X1644771Y640400D01*
X1644771Y639400D01*
X1646762Y637400D01*
X1650744Y637400D01*
X1649749Y637400D02*
X1644771Y632400D01*
X1641784Y640400D02*
X1639793Y642400D01*
X1637802Y642400D01*
X1635811Y640400D01*
X1635811Y639400D01*
X1641784Y632400D01*
X1635811Y632400D01*
X1635811Y633400D01*
X1632824Y640400D02*
X1630833Y642400D01*
X1628842Y642400D01*
X1626851Y640400D01*
X1626851Y634400D01*
X1628842Y632400D01*
X1630833Y632400D01*
X1632824Y634400D01*
X1632824Y640400D01*
X1626851Y640400D02*
X1632824Y634400D01*
X1650744Y683200D02*
X1650744Y693200D01*
X1646762Y693200D01*
X1644771Y691200D01*
X1644771Y690200D01*
X1646762Y688200D01*
X1650744Y688200D01*
X1649749Y688200D02*
X1644771Y683200D01*
X1640789Y691200D02*
X1638798Y693200D01*
X1638798Y683200D01*
X1641784Y683200D02*
X1635811Y683200D01*
X1632824Y691200D02*
X1630833Y693200D01*
X1628842Y693200D01*
X1626851Y691200D01*
X1626851Y690200D01*
X1632824Y683200D01*
X1626851Y683200D01*
X1626851Y684200D01*
X1646264Y734000D02*
X1646264Y744000D01*
X1642282Y744000D01*
X1640291Y742000D01*
X1640291Y741000D01*
X1642282Y739000D01*
X1646264Y739000D01*
X1645269Y739000D02*
X1640291Y734000D01*
X1631331Y738000D02*
X1637304Y738000D01*
X1632327Y744000D01*
X1632327Y734000D01*
X1633322Y734000D02*
X1631331Y734000D01*
X630264Y378400D02*
X630264Y388400D01*
X626282Y388400D01*
X624291Y386400D01*
X624291Y385400D01*
X626282Y383400D01*
X630264Y383400D01*
X629269Y383400D02*
X624291Y378400D01*
X616327Y388400D02*
X619313Y388400D01*
X621304Y386400D01*
X621304Y382400D01*
X621304Y380400D01*
X619313Y378400D01*
X617322Y378400D01*
X615331Y380400D01*
X615331Y382400D01*
X617322Y384400D01*
X619313Y384400D01*
X621304Y382400D01*
X1650744Y226000D02*
X1650744Y236000D01*
X1646762Y236000D01*
X1644771Y234000D01*
X1644771Y233000D01*
X1646762Y231000D01*
X1650744Y231000D01*
X1649749Y231000D02*
X1644771Y226000D01*
X1640789Y235000D02*
X1639793Y236000D01*
X1637802Y236000D01*
X1635811Y234000D01*
X1635811Y232000D01*
X1636807Y231000D01*
X1635811Y230000D01*
X1635811Y228000D01*
X1637802Y226000D01*
X1639793Y226000D01*
X1640789Y227000D01*
X1639793Y231000D02*
X1636807Y231000D01*
X1632824Y234000D02*
X1630833Y236000D01*
X1628842Y236000D01*
X1626851Y234000D01*
X1626851Y233000D01*
X1632824Y226000D01*
X1626851Y226000D01*
X1626851Y227000D01*
X1650744Y276800D02*
X1650744Y286800D01*
X1646762Y286800D01*
X1644771Y284800D01*
X1644771Y283800D01*
X1646762Y281800D01*
X1650744Y281800D01*
X1649749Y281800D02*
X1644771Y276800D01*
X1641784Y284800D02*
X1639793Y286800D01*
X1637802Y286800D01*
X1635811Y284800D01*
X1635811Y283800D01*
X1641784Y276800D01*
X1635811Y276800D01*
X1635811Y277800D01*
X1626851Y280800D02*
X1632824Y280800D01*
X1627847Y286800D01*
X1627847Y276800D01*
X1628842Y276800D02*
X1626851Y276800D01*
X1650744Y327600D02*
X1650744Y337600D01*
X1646762Y337600D01*
X1644771Y335600D01*
X1644771Y334600D01*
X1646762Y332600D01*
X1650744Y332600D01*
X1649749Y332600D02*
X1644771Y327600D01*
X1640789Y335600D02*
X1638798Y337600D01*
X1638798Y327600D01*
X1641784Y327600D02*
X1635811Y327600D01*
X1627847Y337600D02*
X1630833Y337600D01*
X1632824Y335600D01*
X1632824Y331600D01*
X1632824Y329600D01*
X1630833Y327600D01*
X1628842Y327600D01*
X1626851Y329600D01*
X1626851Y331600D01*
X1628842Y333600D01*
X1630833Y333600D01*
X1632824Y331600D01*
X1646264Y378400D02*
X1646264Y388400D01*
X1642282Y388400D01*
X1640291Y386400D01*
X1640291Y385400D01*
X1642282Y383400D01*
X1646264Y383400D01*
X1645269Y383400D02*
X1640291Y378400D01*
X1633322Y378400D02*
X1635313Y378400D01*
X1637304Y380400D01*
X1637304Y382400D01*
X1636309Y383400D01*
X1637304Y384400D01*
X1637304Y386400D01*
X1635313Y388400D01*
X1633322Y388400D01*
X1631331Y386400D01*
X1631331Y384400D01*
X1632327Y383400D01*
X1631331Y382400D01*
X1631331Y380400D01*
X1633322Y378400D01*
X1636309Y383400D02*
X1632327Y383400D01*
X630264Y734000D02*
X630264Y744000D01*
X626282Y744000D01*
X624291Y742000D01*
X624291Y741000D01*
X626282Y739000D01*
X630264Y739000D01*
X629269Y739000D02*
X624291Y734000D01*
X621304Y742000D02*
X619313Y744000D01*
X617322Y744000D01*
X615331Y742000D01*
X615331Y741000D01*
X621304Y734000D01*
X615331Y734000D01*
X615331Y735000D01*
X1417664Y378400D02*
X1417664Y388400D01*
X1413682Y388400D01*
X1411691Y386400D01*
X1411691Y385400D01*
X1413682Y383400D01*
X1417664Y383400D01*
X1416669Y383400D02*
X1411691Y378400D01*
X1405718Y378400D02*
X1405718Y383400D01*
X1402731Y386400D01*
X1402731Y388400D01*
X1408704Y388400D01*
X1408704Y386400D01*
X1422144Y683200D02*
X1422144Y693200D01*
X1418162Y693200D01*
X1416171Y691200D01*
X1416171Y690200D01*
X1418162Y688200D01*
X1422144Y688200D01*
X1421149Y688200D02*
X1416171Y683200D01*
X1412189Y691200D02*
X1410198Y693200D01*
X1410198Y683200D01*
X1413184Y683200D02*
X1407211Y683200D01*
X1403229Y691200D02*
X1401238Y693200D01*
X1401238Y683200D01*
X1404224Y683200D02*
X1398251Y683200D01*
X1417664Y734000D02*
X1417664Y744000D01*
X1413682Y744000D01*
X1411691Y742000D01*
X1411691Y741000D01*
X1413682Y739000D01*
X1417664Y739000D01*
X1416669Y739000D02*
X1411691Y734000D01*
X1407709Y743000D02*
X1406713Y744000D01*
X1404722Y744000D01*
X1402731Y742000D01*
X1402731Y740000D01*
X1403727Y739000D01*
X1402731Y738000D01*
X1402731Y736000D01*
X1404722Y734000D01*
X1406713Y734000D01*
X1407709Y735000D01*
X1406713Y739000D02*
X1403727Y739000D01*
X1422144Y632400D02*
X1422144Y642400D01*
X1418162Y642400D01*
X1416171Y640400D01*
X1416171Y639400D01*
X1418162Y637400D01*
X1422144Y637400D01*
X1421149Y637400D02*
X1416171Y632400D01*
X1412189Y640400D02*
X1410198Y642400D01*
X1410198Y632400D01*
X1413184Y632400D02*
X1407211Y632400D01*
X1404224Y634400D02*
X1402233Y632400D01*
X1400242Y632400D01*
X1398251Y634400D01*
X1398251Y638400D01*
X1398251Y640400D01*
X1400242Y642400D01*
X1402233Y642400D01*
X1404224Y640400D01*
X1404224Y638400D01*
X1402233Y636400D01*
X1400242Y636400D01*
X1398251Y638400D01*
X1422144Y581600D02*
X1422144Y591600D01*
X1418162Y591600D01*
X1416171Y589600D01*
X1416171Y588600D01*
X1418162Y586600D01*
X1422144Y586600D01*
X1421149Y586600D02*
X1416171Y581600D01*
X1413184Y589600D02*
X1411193Y591600D01*
X1409202Y591600D01*
X1407211Y589600D01*
X1407211Y588600D01*
X1413184Y581600D01*
X1407211Y581600D01*
X1407211Y582600D01*
X1401238Y581600D02*
X1401238Y586600D01*
X1398251Y589600D01*
X1398251Y591600D01*
X1404224Y591600D01*
X1404224Y589600D01*
X1053500Y810809D02*
X1051500Y808818D01*
X1051500Y806827D01*
X1053500Y804836D01*
X1059500Y804836D01*
X1061500Y806827D01*
X1061500Y808818D01*
X1059500Y810809D01*
X1059500Y813796D02*
X1061500Y815787D01*
X1061500Y817778D01*
X1059500Y819769D01*
X1058500Y819769D01*
X1051500Y813796D01*
X1051500Y819769D01*
X1052500Y819769D01*
X990000Y810809D02*
X988000Y808818D01*
X988000Y806827D01*
X990000Y804836D01*
X996000Y804836D01*
X998000Y806827D01*
X998000Y808818D01*
X996000Y810809D01*
X997000Y814791D02*
X998000Y815787D01*
X998000Y817778D01*
X996000Y819769D01*
X994000Y819769D01*
X993000Y818773D01*
X992000Y819769D01*
X990000Y819769D01*
X988000Y817778D01*
X988000Y815787D01*
X989000Y814791D01*
X993000Y815787D02*
X993000Y818773D01*
X926500Y810809D02*
X924500Y808818D01*
X924500Y806827D01*
X926500Y804836D01*
X932500Y804836D01*
X934500Y806827D01*
X934500Y808818D01*
X932500Y810809D01*
X928500Y819769D02*
X928500Y813796D01*
X934500Y818773D01*
X924500Y818773D01*
X924500Y817778D02*
X924500Y819769D01*
X634744Y581600D02*
X634744Y591600D01*
X630762Y591600D01*
X628771Y589600D01*
X628771Y588600D01*
X630762Y586600D01*
X634744Y586600D01*
X633749Y586600D02*
X628771Y581600D01*
X625784Y589600D02*
X623793Y591600D01*
X621802Y591600D01*
X619811Y589600D01*
X619811Y588600D01*
X625784Y581600D01*
X619811Y581600D01*
X619811Y582600D01*
X611847Y591600D02*
X614833Y591600D01*
X616824Y589600D01*
X616824Y585600D01*
X616824Y583600D01*
X614833Y581600D01*
X612842Y581600D01*
X610851Y583600D01*
X610851Y585600D01*
X612842Y587600D01*
X614833Y587600D01*
X616824Y585600D01*
X634744Y632400D02*
X634744Y642400D01*
X630762Y642400D01*
X628771Y640400D01*
X628771Y639400D01*
X630762Y637400D01*
X634744Y637400D01*
X633749Y637400D02*
X628771Y632400D01*
X624789Y640400D02*
X622798Y642400D01*
X622798Y632400D01*
X625784Y632400D02*
X619811Y632400D01*
X612842Y632400D02*
X614833Y632400D01*
X616824Y634400D01*
X616824Y636400D01*
X615829Y637400D01*
X616824Y638400D01*
X616824Y640400D01*
X614833Y642400D01*
X612842Y642400D01*
X610851Y640400D01*
X610851Y638400D01*
X611847Y637400D01*
X610851Y636400D01*
X610851Y634400D01*
X612842Y632400D01*
X615829Y637400D02*
X611847Y637400D01*
X634744Y683200D02*
X634744Y693200D01*
X630762Y693200D01*
X628771Y691200D01*
X628771Y690200D01*
X630762Y688200D01*
X634744Y688200D01*
X633749Y688200D02*
X628771Y683200D01*
X624789Y691200D02*
X622798Y693200D01*
X622798Y683200D01*
X625784Y683200D02*
X619811Y683200D01*
X616824Y691200D02*
X614833Y693200D01*
X612842Y693200D01*
X610851Y691200D01*
X610851Y685200D01*
X612842Y683200D01*
X614833Y683200D01*
X616824Y685200D01*
X616824Y691200D01*
X610851Y691200D02*
X616824Y685200D01*
X401664Y683200D02*
X401664Y693200D01*
X397682Y693200D01*
X395691Y691200D01*
X395691Y690200D01*
X397682Y688200D01*
X401664Y688200D01*
X400669Y688200D02*
X395691Y683200D01*
X392704Y685200D02*
X390713Y683200D01*
X388722Y683200D01*
X386731Y685200D01*
X386731Y689200D01*
X386731Y691200D01*
X388722Y693200D01*
X390713Y693200D01*
X392704Y691200D01*
X392704Y689200D01*
X390713Y687200D01*
X388722Y687200D01*
X386731Y689200D01*
X406144Y632400D02*
X406144Y642400D01*
X402162Y642400D01*
X400171Y640400D01*
X400171Y639400D01*
X402162Y637400D01*
X406144Y637400D01*
X405149Y637400D02*
X400171Y632400D01*
X396189Y640400D02*
X394198Y642400D01*
X394198Y632400D01*
X397184Y632400D02*
X391211Y632400D01*
X385238Y632400D02*
X385238Y637400D01*
X382251Y640400D01*
X382251Y642400D01*
X388224Y642400D01*
X388224Y640400D01*
X1422144Y327600D02*
X1422144Y337600D01*
X1418162Y337600D01*
X1416171Y335600D01*
X1416171Y334600D01*
X1418162Y332600D01*
X1422144Y332600D01*
X1421149Y332600D02*
X1416171Y327600D01*
X1412189Y335600D02*
X1410198Y337600D01*
X1410198Y327600D01*
X1413184Y327600D02*
X1407211Y327600D01*
X1398251Y337600D02*
X1404224Y337600D01*
X1404224Y333600D01*
X1400242Y333600D01*
X1398251Y331600D01*
X1398251Y329600D01*
X1400242Y327600D01*
X1404224Y327600D01*
X1422144Y226000D02*
X1422144Y236000D01*
X1418162Y236000D01*
X1416171Y234000D01*
X1416171Y233000D01*
X1418162Y231000D01*
X1422144Y231000D01*
X1421149Y231000D02*
X1416171Y226000D01*
X1412189Y235000D02*
X1411193Y236000D01*
X1409202Y236000D01*
X1407211Y234000D01*
X1407211Y232000D01*
X1408207Y231000D01*
X1407211Y230000D01*
X1407211Y228000D01*
X1409202Y226000D01*
X1411193Y226000D01*
X1412189Y227000D01*
X1411193Y231000D02*
X1408207Y231000D01*
X1403229Y234000D02*
X1401238Y236000D01*
X1401238Y226000D01*
X1404224Y226000D02*
X1398251Y226000D01*
X1422144Y276800D02*
X1422144Y286800D01*
X1418162Y286800D01*
X1416171Y284800D01*
X1416171Y283800D01*
X1418162Y281800D01*
X1422144Y281800D01*
X1421149Y281800D02*
X1416171Y276800D01*
X1413184Y284800D02*
X1411193Y286800D01*
X1409202Y286800D01*
X1407211Y284800D01*
X1407211Y283800D01*
X1413184Y276800D01*
X1407211Y276800D01*
X1407211Y277800D01*
X1403229Y285800D02*
X1402233Y286800D01*
X1400242Y286800D01*
X1398251Y284800D01*
X1398251Y282800D01*
X1399247Y281800D01*
X1398251Y280800D01*
X1398251Y278800D01*
X1400242Y276800D01*
X1402233Y276800D01*
X1403229Y277800D01*
X1402233Y281800D02*
X1399247Y281800D01*
X634744Y327600D02*
X634744Y337600D01*
X630762Y337600D01*
X628771Y335600D01*
X628771Y334600D01*
X630762Y332600D01*
X634744Y332600D01*
X633749Y332600D02*
X628771Y327600D01*
X624789Y335600D02*
X622798Y337600D01*
X622798Y327600D01*
X625784Y327600D02*
X619811Y327600D01*
X610851Y331600D02*
X616824Y331600D01*
X611847Y337600D01*
X611847Y327600D01*
X612842Y327600D02*
X610851Y327600D01*
X634744Y226000D02*
X634744Y236000D01*
X630762Y236000D01*
X628771Y234000D01*
X628771Y233000D01*
X630762Y231000D01*
X634744Y231000D01*
X633749Y231000D02*
X628771Y226000D01*
X624789Y235000D02*
X623793Y236000D01*
X621802Y236000D01*
X619811Y234000D01*
X619811Y232000D01*
X620807Y231000D01*
X619811Y230000D01*
X619811Y228000D01*
X621802Y226000D01*
X623793Y226000D01*
X624789Y227000D01*
X623793Y231000D02*
X620807Y231000D01*
X616824Y234000D02*
X614833Y236000D01*
X612842Y236000D01*
X610851Y234000D01*
X610851Y228000D01*
X612842Y226000D01*
X614833Y226000D01*
X616824Y228000D01*
X616824Y234000D01*
X610851Y234000D02*
X616824Y228000D01*
X634744Y276800D02*
X634744Y286800D01*
X630762Y286800D01*
X628771Y284800D01*
X628771Y283800D01*
X630762Y281800D01*
X634744Y281800D01*
X633749Y281800D02*
X628771Y276800D01*
X625784Y284800D02*
X623793Y286800D01*
X621802Y286800D01*
X619811Y284800D01*
X619811Y283800D01*
X625784Y276800D01*
X619811Y276800D01*
X619811Y277800D01*
X616824Y284800D02*
X614833Y286800D01*
X612842Y286800D01*
X610851Y284800D01*
X610851Y283800D01*
X616824Y276800D01*
X610851Y276800D01*
X610851Y277800D01*
X1062836Y845300D02*
X1064827Y847300D01*
X1066818Y847300D01*
X1068809Y845300D01*
X1068809Y837300D01*
X1072791Y838300D02*
X1073787Y837300D01*
X1075778Y837300D01*
X1077769Y839300D01*
X1077769Y841300D01*
X1076773Y842300D01*
X1077769Y843300D01*
X1077769Y845300D01*
X1075778Y847300D01*
X1073787Y847300D01*
X1072791Y846300D01*
X1073787Y842300D02*
X1076773Y842300D01*
X406144Y276800D02*
X406144Y286800D01*
X402162Y286800D01*
X400171Y284800D01*
X400171Y283800D01*
X402162Y281800D01*
X406144Y281800D01*
X405149Y281800D02*
X400171Y276800D01*
X397184Y284800D02*
X395193Y286800D01*
X393202Y286800D01*
X391211Y284800D01*
X391211Y283800D01*
X397184Y276800D01*
X391211Y276800D01*
X391211Y277800D01*
X387229Y284800D02*
X385238Y286800D01*
X385238Y276800D01*
X388224Y276800D02*
X382251Y276800D01*
X406144Y226000D02*
X406144Y236000D01*
X402162Y236000D01*
X400171Y234000D01*
X400171Y233000D01*
X402162Y231000D01*
X406144Y231000D01*
X405149Y231000D02*
X400171Y226000D01*
X397184Y234000D02*
X395193Y236000D01*
X393202Y236000D01*
X391211Y234000D01*
X391211Y233000D01*
X397184Y226000D01*
X391211Y226000D01*
X391211Y227000D01*
X388224Y228000D02*
X386233Y226000D01*
X384242Y226000D01*
X382251Y228000D01*
X382251Y232000D01*
X382251Y234000D01*
X384242Y236000D01*
X386233Y236000D01*
X388224Y234000D01*
X388224Y232000D01*
X386233Y230000D01*
X384242Y230000D01*
X382251Y232000D01*
X406144Y327600D02*
X406144Y337600D01*
X402162Y337600D01*
X400171Y335600D01*
X400171Y334600D01*
X402162Y332600D01*
X406144Y332600D01*
X405149Y332600D02*
X400171Y327600D01*
X396189Y335600D02*
X394198Y337600D01*
X394198Y327600D01*
X397184Y327600D02*
X391211Y327600D01*
X387229Y336600D02*
X386233Y337600D01*
X384242Y337600D01*
X382251Y335600D01*
X382251Y333600D01*
X383247Y332600D01*
X382251Y331600D01*
X382251Y329600D01*
X384242Y327600D01*
X386233Y327600D01*
X387229Y328600D01*
X386233Y332600D02*
X383247Y332600D01*
X401664Y378400D02*
X401664Y388400D01*
X397682Y388400D01*
X395691Y386400D01*
X395691Y385400D01*
X397682Y383400D01*
X401664Y383400D01*
X400669Y383400D02*
X395691Y378400D01*
X386731Y388400D02*
X392704Y388400D01*
X392704Y384400D01*
X388722Y384400D01*
X386731Y382400D01*
X386731Y380400D01*
X388722Y378400D01*
X392704Y378400D01*
G54D12*
X1999960Y186950D02*
X1931960Y186950D01*
X1931960Y244850D01*
X1999960Y244850D01*
X1999960Y186950D01*
X94250Y422846D02*
X79264Y422846D01*
X79264Y592010D01*
X94250Y592010D01*
X94250Y422846D01*
X79264Y411416D02*
X38370Y411416D01*
X38370Y603440D01*
X79264Y603440D01*
X79264Y411416D01*
X161560Y359346D02*
X38370Y359346D01*
X38370Y655510D01*
X161560Y655510D01*
X161560Y359346D01*
X38370Y353377D02*
X29480Y353377D01*
X29480Y661479D01*
X38370Y661479D01*
X38370Y353377D01*
X29480Y425894D02*
X-30464Y425894D01*
X-30464Y588962D01*
X29480Y588962D01*
X29480Y425894D01*
X1993630Y661479D02*
X2002520Y661479D01*
X2002520Y353377D01*
X1993630Y353377D01*
X1993630Y661479D01*
X1870440Y655510D02*
X1993630Y655510D01*
X1993630Y359346D01*
X1870440Y359346D01*
X1870440Y655510D01*
X2062464Y592010D02*
X2062464Y422846D01*
X1952736Y603440D02*
X1993630Y603440D01*
X1993630Y411416D01*
X1952736Y411416D01*
X1952736Y603440D01*
X1937750Y592010D02*
X1952736Y592010D01*
X1952736Y422846D01*
X1937750Y422846D01*
X1937750Y592010D01*
X2062464Y592010D02*
X2002520Y592010D01*
X2062464Y422846D02*
X2002520Y422846D01*
X1169479Y38370D02*
X861377Y38370D01*
X861377Y29480D01*
X1169479Y29480D01*
X1169479Y38370D01*
X1163510Y161560D02*
X867346Y161560D01*
X867346Y38370D01*
X1163510Y38370D01*
X1163510Y161560D01*
X1100010Y-30464D02*
X930846Y-30464D01*
X1111440Y79264D02*
X919416Y79264D01*
X919416Y38370D01*
X1111440Y38370D01*
X1111440Y79264D01*
X1100010Y94250D02*
X930846Y94250D01*
X930846Y79264D01*
X1100010Y79264D01*
X1100010Y94250D01*
X1100010Y-30464D02*
X1100010Y29480D01*
X930846Y-30464D02*
X930846Y29480D01*
X399200Y597100D02*
X388200Y597100D01*
X399200Y622100D02*
X388200Y622100D01*
X399200Y622100D02*
X388200Y622100D01*
X399200Y749500D02*
X388200Y749500D01*
X399200Y774500D02*
X388200Y774500D01*
X399200Y774500D02*
X388200Y774500D01*
X1643800Y597100D02*
X1632800Y597100D01*
X1643800Y622100D02*
X1632800Y622100D01*
X1643800Y622100D02*
X1632800Y622100D01*
X1643800Y647900D02*
X1632800Y647900D01*
X1643800Y672900D02*
X1632800Y672900D01*
X1643800Y672900D02*
X1632800Y672900D01*
X1643800Y698700D02*
X1632800Y698700D01*
X1643800Y723700D02*
X1632800Y723700D01*
X1643800Y723700D02*
X1632800Y723700D01*
X1643800Y749500D02*
X1632800Y749500D01*
X1643800Y774500D02*
X1632800Y774500D01*
X1643800Y774500D02*
X1632800Y774500D01*
X627800Y393900D02*
X616800Y393900D01*
X627800Y418900D02*
X616800Y418900D01*
X627800Y418900D02*
X616800Y418900D01*
X1643800Y241500D02*
X1632800Y241500D01*
X1643800Y266500D02*
X1632800Y266500D01*
X1643800Y266500D02*
X1632800Y266500D01*
X1643800Y292300D02*
X1632800Y292300D01*
X1643800Y317300D02*
X1632800Y317300D01*
X1643800Y317300D02*
X1632800Y317300D01*
X1643800Y343100D02*
X1632800Y343100D01*
X1643800Y368100D02*
X1632800Y368100D01*
X1643800Y368100D02*
X1632800Y368100D01*
X1643800Y393900D02*
X1632800Y393900D01*
X1643800Y418900D02*
X1632800Y418900D01*
X1643800Y418900D02*
X1632800Y418900D01*
X627800Y749500D02*
X616800Y749500D01*
X627800Y774500D02*
X616800Y774500D01*
X627800Y774500D02*
X616800Y774500D01*
X1415200Y393900D02*
X1404200Y393900D01*
X1415200Y418900D02*
X1404200Y418900D01*
X1415200Y418900D02*
X1404200Y418900D01*
X1415200Y698700D02*
X1404200Y698700D01*
X1415200Y723700D02*
X1404200Y723700D01*
X1415200Y723700D02*
X1404200Y723700D01*
X1415200Y749500D02*
X1404200Y749500D01*
X1415200Y774500D02*
X1404200Y774500D01*
X1415200Y774500D02*
X1404200Y774500D01*
X1415200Y647900D02*
X1404200Y647900D01*
X1415200Y672900D02*
X1404200Y672900D01*
X1415200Y672900D02*
X1404200Y672900D01*
X1415200Y597100D02*
X1404200Y597100D01*
X1415200Y622100D02*
X1404200Y622100D01*
X1415200Y622100D02*
X1404200Y622100D01*
X1067000Y807300D02*
X1067000Y818300D01*
X1092000Y807300D02*
X1092000Y818300D01*
X1092000Y807300D02*
X1092000Y818300D01*
X1003500Y807300D02*
X1003500Y818300D01*
X1028500Y807300D02*
X1028500Y818300D01*
X1028500Y807300D02*
X1028500Y818300D01*
X940000Y807300D02*
X940000Y818300D01*
X965000Y807300D02*
X965000Y818300D01*
X965000Y807300D02*
X965000Y818300D01*
X627800Y597100D02*
X616800Y597100D01*
X627800Y622100D02*
X616800Y622100D01*
X627800Y622100D02*
X616800Y622100D01*
X627800Y647900D02*
X616800Y647900D01*
X627800Y672900D02*
X616800Y672900D01*
X627800Y672900D02*
X616800Y672900D01*
X627800Y698700D02*
X616800Y698700D01*
X627800Y723700D02*
X616800Y723700D01*
X627800Y723700D02*
X616800Y723700D01*
X399200Y698700D02*
X388200Y698700D01*
X399200Y723700D02*
X388200Y723700D01*
X399200Y723700D02*
X388200Y723700D01*
X399200Y647900D02*
X388200Y647900D01*
X399200Y672900D02*
X388200Y672900D01*
X399200Y672900D02*
X388200Y672900D01*
X1415200Y343100D02*
X1404200Y343100D01*
X1415200Y368100D02*
X1404200Y368100D01*
X1415200Y368100D02*
X1404200Y368100D01*
X1415200Y241500D02*
X1404200Y241500D01*
X1415200Y266500D02*
X1404200Y266500D01*
X1415200Y266500D02*
X1404200Y266500D01*
X1415200Y292300D02*
X1404200Y292300D01*
X1415200Y317300D02*
X1404200Y317300D01*
X1415200Y317300D02*
X1404200Y317300D01*
X627800Y343100D02*
X616800Y343100D01*
X627800Y368100D02*
X616800Y368100D01*
X627800Y368100D02*
X616800Y368100D01*
X627800Y241500D02*
X616800Y241500D01*
X627800Y266500D02*
X616800Y266500D01*
X627800Y266500D02*
X616800Y266500D01*
X627800Y292300D02*
X616800Y292300D01*
X627800Y317300D02*
X616800Y317300D01*
X627800Y317300D02*
X616800Y317300D01*
X930846Y921750D02*
X1100010Y921750D01*
X1100010Y936736D01*
X930846Y936736D01*
X930846Y921750D01*
X919416Y936736D02*
X1111440Y936736D01*
X1111440Y977630D01*
X919416Y977630D01*
X919416Y936736D01*
X867346Y854440D02*
X1163510Y854440D01*
X1163510Y977630D01*
X867346Y977630D01*
X867346Y854440D01*
X861377Y977630D02*
X1169479Y977630D01*
X1169479Y986520D01*
X861377Y986520D01*
X861377Y977630D01*
X933894Y986520D02*
X1096962Y986520D01*
X1096962Y1046464D01*
X933894Y1046464D01*
X933894Y986520D01*
X399200Y292300D02*
X388200Y292300D01*
X399200Y317300D02*
X388200Y317300D01*
X399200Y317300D02*
X388200Y317300D01*
X399200Y241500D02*
X388200Y241500D01*
X399200Y266500D02*
X388200Y266500D01*
X399200Y266500D02*
X388200Y266500D01*
X399200Y343100D02*
X388200Y343100D01*
X399200Y368100D02*
X388200Y368100D01*
X399200Y368100D02*
X388200Y368100D01*
X399200Y393900D02*
X388200Y393900D01*
X399200Y418900D02*
X388200Y418900D01*
X399200Y418900D02*
X388200Y418900D01*
G54D13*
X1867144Y772160D02*
X1867144Y871220D01*
X1867784Y871220D02*
X1907784Y871220D01*
X2014464Y871220D02*
X2014464Y772160D01*
X1907784Y871220D02*
X2014464Y871220D01*
X2014464Y772160D02*
X1867144Y772160D01*
X283936Y537351D02*
X277888Y537351D01*
X276376Y540173D01*
X276376Y542996D01*
X277888Y545818D01*
X283936Y545818D01*
X283180Y551462D02*
X283936Y552873D01*
X283936Y555696D01*
X282424Y558518D01*
X280912Y558518D01*
X280156Y557107D01*
X279400Y558518D01*
X277888Y558518D01*
X276376Y555696D01*
X276376Y552873D01*
X277132Y551462D01*
X280156Y552873D02*
X280156Y557107D01*
X266700Y571500D02*
X266700Y520700D01*
X241300Y571500D02*
X241300Y520700D01*
X266700Y520700D01*
X241300Y520700D01*
X241300Y546100D02*
X266700Y546100D01*
X266700Y571500D02*
X241300Y571500D01*
X283936Y461151D02*
X277888Y461151D01*
X276376Y463973D01*
X276376Y466796D01*
X277888Y469618D01*
X283936Y469618D01*
X279400Y482318D02*
X279400Y473851D01*
X283936Y480907D01*
X276376Y480907D01*
X276376Y479496D02*
X276376Y482318D01*
X266700Y495300D02*
X266700Y444500D01*
X241300Y495300D02*
X241300Y444500D01*
X266700Y444500D01*
X241300Y444500D01*
X241300Y469900D02*
X266700Y469900D01*
X266700Y495300D02*
X241300Y495300D01*
X1062849Y220436D02*
X1062849Y214388D01*
X1060027Y212876D01*
X1057204Y212876D01*
X1054382Y214388D01*
X1054382Y220436D01*
X1050149Y218924D02*
X1047327Y220436D01*
X1044504Y220436D01*
X1041682Y218924D01*
X1041682Y218168D01*
X1050149Y212876D01*
X1041682Y212876D01*
X1041682Y213632D01*
X1028700Y203200D02*
X1079500Y203200D01*
X1028700Y177800D02*
X1079500Y177800D01*
X1079500Y203200D01*
X1079500Y177800D01*
X1054100Y177800D02*
X1054100Y203200D01*
X1028700Y203200D02*
X1028700Y177800D01*
X986649Y220436D02*
X986649Y214388D01*
X983827Y212876D01*
X981004Y212876D01*
X978182Y214388D01*
X978182Y220436D01*
X972538Y218924D02*
X969716Y220436D01*
X969716Y212876D01*
X973949Y212876D02*
X965482Y212876D01*
X952500Y203200D02*
X1003300Y203200D01*
X952500Y177800D02*
X1003300Y177800D01*
X1003300Y203200D01*
X1003300Y177800D01*
X977900Y177800D02*
X977900Y203200D01*
X952500Y203200D02*
X952500Y177800D01*
G54D14*
X-31464Y-31464D02*
X-31464Y76429D01*
X-31464Y-31464D02*
X178029Y-31464D01*
X2063464Y-31464D02*
X1853971Y-31464D01*
X2063464Y-31464D02*
X2063464Y76429D01*
X2063464Y1047464D02*
X2063464Y939571D01*
X2063464Y1047464D02*
X1853971Y1047464D01*
X-31464Y1047464D02*
X178029Y1047464D01*
X-31464Y1047464D02*
X-31464Y939571D01*
X-81464Y-31464D02*
X-181464Y-31464D01*
X-131464Y-81464D02*
X-131464Y18536D01*
X-168964Y-31464D02*
G75*
D01*
G02X-168964Y-31464I37500J0*
G01*
X2113464Y-31464D02*
X2213464Y-31464D01*
X2163464Y-81464D02*
X2163464Y18536D01*
X2125964Y-31464D02*
G75*
D01*
G02X2125964Y-31464I37500J0*
G01*
X2150964Y-31464D02*
G75*
D01*
G02X2150964Y-31464I12500J0*
G01*
X-81464Y1047464D02*
X-181464Y1047464D01*
X-131464Y997464D02*
X-131464Y1097464D01*
X-168964Y1047464D02*
G75*
D01*
G02X-168964Y1047464I37500J0*
G01*
X-156464Y1047464D02*
G75*
D01*
G02X-156464Y1047464I25000J0*
G01*
X-143964Y1047464D02*
G75*
D01*
G02X-143964Y1047464I12500J0*
G01*

M02*
