G04 Generated by Ultiboard 13.0 *
%FSLAX34Y34*%
%MOMM*%

%ADD11C,4.0000*%
%ADD12C,0.8890*%
%ADD13C,1.1810*%
%ADD14C,1.7800*%
%ADD15C,1.1811*%
%ADD16C,3.0480*%
%ADD17C,0.9652*%
%ADD18C,1.6500*%
%ADD19C,0.9949*%
%ADD20C,0.6000*%


G04 ColorRGB 000000 for the following layer *
%LNDrill-Copper Top-Copper Bottom*%
%LPD*%
G54D11*
X63500Y952500D03*
X63500Y63500D03*
X1968500Y63500D03*
X1968500Y952500D03*
G54D12*
X1790700Y254000D03*
X1765300Y254000D03*
X1666000Y520400D03*
X1666000Y495000D03*
X266700Y762000D03*
X241300Y762000D03*
X1790700Y762000D03*
X1765300Y762000D03*
X254000Y533400D03*
X254000Y558800D03*
X254000Y457200D03*
X254000Y482600D03*
X266700Y254000D03*
X241300Y254000D03*
X774700Y762000D03*
X749300Y762000D03*
X1282700Y762000D03*
X1257300Y762000D03*
X790400Y532000D03*
X790400Y481200D03*
X765000Y481200D03*
X790400Y506600D03*
X765000Y506600D03*
X1282700Y254000D03*
X1257300Y254000D03*
X774700Y254000D03*
X749300Y254000D03*
X1066800Y190500D03*
X1041400Y190500D03*
X990600Y190500D03*
X965200Y190500D03*
X1093945Y739600D03*
X941545Y714200D03*
X941545Y688800D03*
X941545Y663400D03*
X941545Y638000D03*
X941545Y612600D03*
X941545Y587200D03*
X941545Y536400D03*
X941545Y561800D03*
X941545Y511000D03*
X941545Y460200D03*
X941545Y485600D03*
X941545Y434800D03*
X941545Y409400D03*
X941545Y384000D03*
X941545Y358600D03*
X941545Y257000D03*
X941545Y333200D03*
X941545Y307800D03*
X941545Y282400D03*
X1093945Y587200D03*
X1093945Y714200D03*
X1093945Y688800D03*
X1093945Y663400D03*
X1093945Y638000D03*
X1093945Y612600D03*
X1093945Y536400D03*
X1093945Y561800D03*
X1093945Y511000D03*
X1093945Y460200D03*
X1093945Y485600D03*
X1093945Y434800D03*
X1093945Y257000D03*
X1093945Y409400D03*
X1093945Y384000D03*
X1093945Y358600D03*
X1093945Y333200D03*
X1093945Y307800D03*
X1093945Y282400D03*
X941545Y739600D03*
G54D13*
X1965960Y203200D03*
X1965960Y228600D03*
G54D14*
X1996144Y825110D03*
G54D15*
X138700Y562800D03*
X138700Y507428D03*
X138700Y452056D03*
X138700Y479742D03*
X138700Y535114D03*
X110252Y465899D03*
X110252Y521271D03*
X110252Y493585D03*
X110252Y548957D03*
X1893300Y562800D03*
X1893300Y507428D03*
X1893300Y535114D03*
X1893300Y479742D03*
X1893300Y452056D03*
X1921748Y521271D03*
X1921748Y548957D03*
X1921748Y493585D03*
X1921748Y465899D03*
X1070800Y138700D03*
X1015428Y138700D03*
X1043114Y138700D03*
X987742Y138700D03*
X960056Y138700D03*
X1029271Y110252D03*
X1056957Y110252D03*
X1001585Y110252D03*
X973899Y110252D03*
X1070800Y877300D03*
X1015428Y877300D03*
X960056Y877300D03*
X987742Y877300D03*
X1043114Y877300D03*
X973899Y905748D03*
X1029271Y905748D03*
X1001585Y905748D03*
X1056957Y905748D03*
G54D16*
X124476Y382460D03*
X124476Y632396D03*
X1907524Y632396D03*
X1907524Y382460D03*
X1140396Y124476D03*
X890460Y124476D03*
X890460Y891524D03*
X1140396Y891524D03*
G54D17*
X217108Y114300D03*
X217108Y139700D03*
X293308Y114300D03*
X293308Y139700D03*
X1741108Y114300D03*
X1741108Y139700D03*
X1817308Y114300D03*
X1817308Y139700D03*
X1741108Y901700D03*
X1741108Y876300D03*
X1817308Y901700D03*
X1817308Y876300D03*
X217108Y901700D03*
X217108Y876300D03*
X725108Y901700D03*
X725108Y876300D03*
X801308Y901700D03*
X801308Y876300D03*
X1309308Y901700D03*
X1309308Y876300D03*
X1233108Y901700D03*
X1233108Y876300D03*
X1309308Y114300D03*
X1309308Y139700D03*
X1233108Y114300D03*
X1233108Y139700D03*
X801308Y114300D03*
X801308Y139700D03*
X725108Y114300D03*
X725108Y139700D03*
X293308Y901700D03*
X293308Y876300D03*
G54D18*
X1524000Y555500D03*
X1524000Y508000D03*
X1524000Y460500D03*
G54D19*
X765000Y532000D03*
G54D20*
X1695000Y667500D03*
X1020000Y195000D03*
X1057500Y607500D03*
X697500Y667500D03*
X1327500Y217500D03*
X592500Y292500D03*
X930000Y780000D03*
X532500Y547500D03*
X1380000Y352500D03*
X1372500Y585000D03*
X1350000Y607500D03*
X1297500Y202500D03*
X1365000Y600000D03*
X1027500Y855000D03*
X607500Y562500D03*
X907500Y487500D03*
X592500Y720000D03*
X622500Y720000D03*
X1425000Y382500D03*
X1642500Y382500D03*
X1597500Y720000D03*
X1672500Y720000D03*
X1072500Y847500D03*
X1200000Y217500D03*
X1200000Y405000D03*
X1297500Y472500D03*
X1290000Y517500D03*
X907500Y765000D03*
X1440000Y675000D03*
X1410000Y675000D03*
X1860000Y547500D03*
X285000Y652500D03*
X1080000Y157500D03*
X1335000Y532500D03*
X1395000Y435000D03*
X352500Y757500D03*
X607500Y277500D03*
X907500Y330000D03*
X367500Y225000D03*
X408700Y254000D03*
X337500Y247500D03*
X378700Y254000D03*
X408700Y355600D03*
X352500Y360000D03*

M02*
